<svg width="14" height="14" viewBox="0 0 14 14" fill="none" xmlns="http://www.w3.org/2000/svg">
<path d="M7.00008 12.8332C6.20286 12.8332 5.44939 12.68 4.73966 12.3738C4.02994 12.0675 3.41015 11.6495 2.88029 11.1196C2.35043 10.5898 1.93237 9.96998 1.62612 9.26025C1.31987 8.55053 1.16675 7.79706 1.16675 6.99984C1.16675 6.19289 1.31987 5.43699 1.62612 4.73213C1.93237 4.02727 2.35043 3.40991 2.88029 2.88005C3.41015 2.35018 4.02994 1.93213 4.73966 1.62588C5.44939 1.31963 6.20286 1.1665 7.00008 1.1665C7.80703 1.1665 8.56293 1.31963 9.26779 1.62588C9.97265 1.93213 10.59 2.35018 11.1199 2.88005C11.6497 3.40991 12.0678 4.02727 12.374 4.73213C12.6803 5.43699 12.8334 6.19289 12.8334 6.99984C12.8334 7.79706 12.6803 8.55053 12.374 9.26025C12.0678 9.96998 11.6497 10.5898 11.1199 11.1196C10.59 11.6495 9.97265 12.0675 9.26779 12.3738C8.56293 12.68 7.80703 12.8332 7.00008 12.8332ZM7.00008 11.6373C7.25286 11.2873 7.47161 10.9228 7.65633 10.5436C7.84105 10.1644 7.99175 9.76095 8.10841 9.33317H5.89175C6.00841 9.76095 6.15911 10.1644 6.34383 10.5436C6.52855 10.9228 6.7473 11.2873 7.00008 11.6373ZM5.48341 11.404C5.30841 11.0832 5.15529 10.7502 5.02404 10.405C4.89279 10.0599 4.78341 9.70261 4.69591 9.33317H2.97508C3.25703 9.81928 3.60946 10.2422 4.03237 10.6019C4.45529 10.9616 4.93897 11.229 5.48341 11.404ZM8.51675 11.404C9.06119 11.229 9.54487 10.9616 9.96779 10.6019C10.3907 10.2422 10.7431 9.81928 11.0251 9.33317H9.30425C9.21675 9.70261 9.10737 10.0599 8.97612 10.405C8.84487 10.7502 8.69175 11.0832 8.51675 11.404ZM2.47925 8.1665H4.46258C4.43341 7.97206 4.41154 7.78005 4.39696 7.59046C4.38237 7.40088 4.37508 7.204 4.37508 6.99984C4.37508 6.79567 4.38237 6.5988 4.39696 6.40921C4.41154 6.21963 4.43341 6.02761 4.46258 5.83317H2.47925C2.43064 6.02761 2.39418 6.21963 2.36987 6.40921C2.34557 6.5988 2.33341 6.79567 2.33341 6.99984C2.33341 7.204 2.34557 7.40088 2.36987 7.59046C2.39418 7.78005 2.43064 7.97206 2.47925 8.1665ZM5.62925 8.1665H8.37091C8.40008 7.97206 8.42196 7.78005 8.43654 7.59046C8.45112 7.40088 8.45841 7.204 8.45841 6.99984C8.45841 6.79567 8.45112 6.5988 8.43654 6.40921C8.42196 6.21963 8.40008 6.02761 8.37091 5.83317H5.62925C5.60008 6.02761 5.57821 6.21963 5.56362 6.40921C5.54904 6.5988 5.54175 6.79567 5.54175 6.99984C5.54175 7.204 5.54904 7.40088 5.56362 7.59046C5.57821 7.78005 5.60008 7.97206 5.62925 8.1665ZM9.53758 8.1665H11.5209C11.5695 7.97206 11.606 7.78005 11.6303 7.59046C11.6546 7.40088 11.6667 7.204 11.6667 6.99984C11.6667 6.79567 11.6546 6.5988 11.6303 6.40921C11.606 6.21963 11.5695 6.02761 11.5209 5.83317H9.53758C9.56675 6.02761 9.58862 6.21963 9.60321 6.40921C9.61779 6.5988 9.62508 6.79567 9.62508 6.99984C9.62508 7.204 9.61779 7.40088 9.60321 7.59046C9.58862 7.78005 9.56675 7.97206 9.53758 8.1665ZM9.30425 4.6665H11.0251C10.7431 4.18039 10.3907 3.75748 9.96779 3.39775C9.54487 3.03803 9.06119 2.77067 8.51675 2.59567C8.69175 2.9165 8.84487 3.24949 8.97612 3.59463C9.10737 3.93977 9.21675 4.29706 9.30425 4.6665ZM5.89175 4.6665H8.10841C7.99175 4.23873 7.84105 3.83525 7.65633 3.45609C7.47161 3.07692 7.25286 2.71234 7.00008 2.36234C6.7473 2.71234 6.52855 3.07692 6.34383 3.45609C6.15911 3.83525 6.00841 4.23873 5.89175 4.6665ZM2.97508 4.6665H4.69591C4.78341 4.29706 4.89279 3.93977 5.02404 3.59463C5.15529 3.24949 5.30841 2.9165 5.48341 2.59567C4.93897 2.77067 4.45529 3.03803 4.03237 3.39775C3.60946 3.75748 3.25703 4.18039 2.97508 4.6665Z" fill="#1659F3"/>
</svg>
