<svg width="297" height="258" viewBox="0 0 297 258" fill="none" xmlns="http://www.w3.org/2000/svg">
<path d="M145.278 15V3.36364H149.426C150.331 3.36364 151.081 3.52841 151.676 3.85795C152.271 4.1875 152.716 4.63826 153.011 5.21023C153.307 5.77841 153.455 6.41856 153.455 7.13068C153.455 7.84659 153.305 8.49053 153.006 9.0625C152.71 9.63068 152.263 10.0814 151.665 10.4148C151.07 10.7443 150.322 10.9091 149.42 10.9091H146.568V9.42045H149.261C149.833 9.42045 150.297 9.32197 150.653 9.125C151.009 8.92424 151.271 8.65152 151.438 8.30682C151.604 7.96212 151.688 7.57008 151.688 7.13068C151.688 6.69129 151.604 6.30114 151.438 5.96023C151.271 5.61932 151.008 5.35227 150.648 5.15909C150.292 4.96591 149.822 4.86932 149.239 4.86932H147.034V15H145.278ZM156.313 15V3.36364H160.461C161.362 3.36364 162.11 3.51894 162.705 3.82955C163.303 4.14015 163.75 4.57008 164.046 5.11932C164.341 5.66477 164.489 6.29545 164.489 7.01136C164.489 7.72348 164.339 8.35038 164.04 8.89205C163.745 9.42992 163.298 9.84848 162.699 10.1477C162.104 10.447 161.356 10.5966 160.455 10.5966H157.313V9.08523H160.296C160.864 9.08523 161.326 9.00379 161.682 8.84091C162.042 8.67803 162.305 8.44129 162.472 8.13068C162.639 7.82008 162.722 7.44697 162.722 7.01136C162.722 6.57197 162.637 6.19129 162.466 5.86932C162.3 5.54735 162.036 5.30114 161.676 5.13068C161.32 4.95644 160.853 4.86932 160.273 4.86932H158.068V15H156.313ZM162.057 9.75L164.932 15H162.932L160.114 9.75H162.057ZM177.533 9.18182C177.533 10.4242 177.306 11.4924 176.851 12.3864C176.397 13.2765 175.774 13.9621 174.982 14.4432C174.194 14.9205 173.298 15.1591 172.295 15.1591C171.287 15.1591 170.387 14.9205 169.596 14.4432C168.808 13.9621 168.187 13.2746 167.732 12.3807C167.278 11.4867 167.05 10.4205 167.05 9.18182C167.05 7.93939 167.278 6.87311 167.732 5.98295C168.187 5.08901 168.808 4.40341 169.596 3.92614C170.387 3.44508 171.287 3.20455 172.295 3.20455C173.298 3.20455 174.194 3.44508 174.982 3.92614C175.774 4.40341 176.397 5.08901 176.851 5.98295C177.306 6.87311 177.533 7.93939 177.533 9.18182ZM175.795 9.18182C175.795 8.23485 175.641 7.4375 175.334 6.78977C175.031 6.13826 174.615 5.64583 174.084 5.3125C173.558 4.97538 172.961 4.80682 172.295 4.80682C171.624 4.80682 171.026 4.97538 170.499 5.3125C169.973 5.64583 169.556 6.13826 169.249 6.78977C168.946 7.4375 168.795 8.23485 168.795 9.18182C168.795 10.1288 168.946 10.928 169.249 11.5795C169.556 12.2273 169.973 12.7197 170.499 13.0568C171.026 13.3902 171.624 13.5568 172.295 13.5568C172.961 13.5568 173.558 13.3902 174.084 13.0568C174.615 12.7197 175.031 12.2273 175.334 11.5795C175.641 10.928 175.795 10.1288 175.795 9.18182ZM180.522 15V3.36364H184.784C185.609 3.36364 186.293 3.5 186.835 3.77273C187.376 4.04167 187.782 4.4072 188.051 4.86932C188.32 5.32765 188.454 5.8447 188.454 6.42045C188.454 6.9053 188.365 7.31439 188.187 7.64773C188.009 7.97727 187.77 8.24242 187.471 8.44318C187.176 8.64015 186.85 8.78409 186.494 8.875V8.98864C186.88 9.00758 187.257 9.13258 187.624 9.36364C187.996 9.59091 188.302 9.91477 188.545 10.3352C188.787 10.7557 188.909 11.267 188.909 11.8693C188.909 12.464 188.768 12.9981 188.488 13.4716C188.212 13.9413 187.784 14.3144 187.204 14.5909C186.624 14.8636 185.884 15 184.982 15H180.522ZM182.278 13.4943H184.812C185.653 13.4943 186.255 13.3314 186.619 13.0057C186.982 12.6799 187.164 12.2727 187.164 11.7841C187.164 11.4167 187.071 11.0795 186.886 10.7727C186.7 10.4659 186.435 10.2216 186.09 10.0398C185.749 9.85795 185.344 9.76705 184.874 9.76705H182.278V13.4943ZM182.278 8.39773H184.63C185.024 8.39773 185.378 8.32197 185.693 8.17045C186.011 8.01894 186.263 7.80682 186.448 7.53409C186.638 7.25758 186.732 6.93182 186.732 6.55682C186.732 6.07576 186.564 5.67235 186.227 5.34659C185.89 5.02083 185.373 4.85795 184.676 4.85795H182.278V8.39773ZM191.791 15V3.36364H193.547V13.4886H198.819V15H191.791ZM201.622 15V3.36364H208.918V4.875H203.378V8.42045H208.537V9.92614H203.378V13.4886H208.986V15H201.622ZM212.063 3.36364H214.193L217.898 12.4091H218.034L221.739 3.36364H223.87V15H222.199V6.57955H222.091L218.659 14.983H217.273L213.841 6.57386H213.733V15H212.063V3.36364ZM233.569 6.42045C233.508 5.88258 233.258 5.46591 232.819 5.17045C232.379 4.87121 231.826 4.72159 231.16 4.72159C230.682 4.72159 230.27 4.79735 229.921 4.94886C229.573 5.09659 229.302 5.30114 229.109 5.5625C228.919 5.82008 228.824 6.11364 228.824 6.44318C228.824 6.7197 228.889 6.95833 229.018 7.15909C229.15 7.35985 229.323 7.52841 229.535 7.66477C229.751 7.79735 229.982 7.90909 230.228 8C230.474 8.08712 230.711 8.15909 230.938 8.21591L232.074 8.51136C232.446 8.60227 232.826 8.72538 233.216 8.88068C233.607 9.03598 233.968 9.24053 234.302 9.49432C234.635 9.74811 234.904 10.0625 235.109 10.4375C235.317 10.8125 235.421 11.2614 235.421 11.7841C235.421 12.4432 235.251 13.0284 234.91 13.5398C234.573 14.0511 234.082 14.4545 233.438 14.75C232.798 15.0455 232.023 15.1932 231.114 15.1932C230.243 15.1932 229.489 15.0549 228.853 14.7784C228.216 14.5019 227.718 14.1098 227.359 13.6023C226.999 13.0909 226.8 12.4848 226.762 11.7841H228.523C228.557 12.2045 228.694 12.5549 228.932 12.8352C229.175 13.1117 229.484 13.3182 229.859 13.4545C230.237 13.5871 230.652 13.6534 231.103 13.6534C231.599 13.6534 232.04 13.5758 232.427 13.4205C232.817 13.2614 233.124 13.0417 233.347 12.7614C233.571 12.4773 233.682 12.1458 233.682 11.767C233.682 11.4223 233.584 11.1402 233.387 10.9205C233.194 10.7008 232.93 10.5189 232.597 10.375C232.268 10.2311 231.895 10.1042 231.478 9.99432L230.103 9.61932C229.171 9.36553 228.432 8.99242 227.887 8.5C227.345 8.00758 227.074 7.35606 227.074 6.54545C227.074 5.875 227.256 5.28977 227.62 4.78977C227.984 4.28977 228.476 3.90151 229.097 3.625C229.718 3.3447 230.419 3.20455 231.199 3.20455C231.987 3.20455 232.682 3.3428 233.285 3.61932C233.891 3.89583 234.368 4.27652 234.716 4.76136C235.065 5.24242 235.247 5.79545 235.262 6.42045H233.569ZM243.353 15V3.36364H250.569V4.875H245.109V8.42045H250.052V9.92614H245.109V15H243.353ZM253.058 15H251.195L255.382 3.36364H257.411L261.598 15H259.734L256.445 5.47727H256.354L253.058 15ZM253.371 10.4432H259.416V11.9205H253.371V10.4432ZM273.196 7.14773H271.424C271.355 6.76894 271.229 6.43561 271.043 6.14773C270.857 5.85985 270.63 5.61553 270.361 5.41477C270.092 5.21401 269.791 5.0625 269.458 4.96023C269.128 4.85795 268.778 4.80682 268.407 4.80682C267.736 4.80682 267.136 4.97538 266.605 5.3125C266.079 5.64962 265.662 6.14394 265.355 6.79545C265.052 7.44697 264.901 8.24242 264.901 9.18182C264.901 10.1288 265.052 10.928 265.355 11.5795C265.662 12.2311 266.081 12.7235 266.611 13.0568C267.141 13.3902 267.738 13.5568 268.401 13.5568C268.768 13.5568 269.117 13.5076 269.446 13.4091C269.78 13.3068 270.081 13.1572 270.35 12.9602C270.619 12.7633 270.846 12.5227 271.032 12.2386C271.221 11.9508 271.352 11.6212 271.424 11.25L273.196 11.2557C273.102 11.8277 272.918 12.3542 272.645 12.8352C272.376 13.3125 272.03 13.7254 271.605 14.0739C271.185 14.4186 270.704 14.6856 270.162 14.875C269.621 15.0644 269.03 15.1591 268.389 15.1591C267.382 15.1591 266.484 14.9205 265.696 14.4432C264.908 13.9621 264.287 13.2746 263.833 12.3807C263.382 11.4867 263.157 10.4205 263.157 9.18182C263.157 7.93939 263.384 6.87311 263.838 5.98295C264.293 5.08901 264.914 4.40341 265.702 3.92614C266.49 3.44508 267.386 3.20455 268.389 3.20455C269.007 3.20455 269.583 3.29356 270.117 3.47159C270.655 3.64583 271.138 3.90341 271.566 4.24432C271.994 4.58144 272.348 4.99432 272.628 5.48295C272.908 5.9678 273.098 6.52273 273.196 7.14773ZM276.097 15V3.36364H283.393V4.875H277.853V8.42045H283.012V9.92614H277.853V13.4886H283.461V15H276.097ZM290.305 15H286.538V3.36364H290.424C291.564 3.36364 292.543 3.59659 293.362 4.0625C294.18 4.52462 294.807 5.18939 295.242 6.05682C295.682 6.92045 295.901 7.95644 295.901 9.16477C295.901 10.3769 295.68 11.4186 295.237 12.2898C294.797 13.161 294.161 13.8314 293.328 14.3011C292.494 14.767 291.487 15 290.305 15ZM288.293 13.4659H290.208C291.095 13.4659 291.831 13.2992 292.418 12.9659C293.006 12.6288 293.445 12.142 293.737 11.5057C294.028 10.8655 294.174 10.0852 294.174 9.16477C294.174 8.25189 294.028 7.47727 293.737 6.84091C293.449 6.20455 293.019 5.72159 292.447 5.39205C291.875 5.0625 291.165 4.89773 290.316 4.89773H288.293V13.4659Z" fill="black"/>
<path d="M75.8196 80V68.3636H77.9276V78.233H83.0526V80H75.8196ZM84.7912 80V71.2727H86.848V80H84.7912ZM85.8253 70.0341C85.4995 70.0341 85.2192 69.9261 84.9844 69.7102C84.7495 69.4905 84.6321 69.2273 84.6321 68.9205C84.6321 68.6098 84.7495 68.3466 84.9844 68.1307C85.2192 67.911 85.4995 67.8011 85.8253 67.8011C86.1548 67.8011 86.4351 67.911 86.6662 68.1307C86.901 68.3466 87.0185 68.6098 87.0185 68.9205C87.0185 69.2273 86.901 69.4905 86.6662 69.7102C86.4351 69.9261 86.1548 70.0341 85.8253 70.0341ZM88.9631 80V71.2727H90.929V72.7557H91.0312C91.2131 72.2557 91.5142 71.8655 91.9347 71.5852C92.3551 71.3011 92.857 71.1591 93.4403 71.1591C94.0312 71.1591 94.5294 71.303 94.9347 71.5909C95.3438 71.875 95.6316 72.2633 95.7983 72.7557H95.8892C96.0824 72.2708 96.4081 71.8845 96.8665 71.5966C97.3286 71.3049 97.8759 71.1591 98.5085 71.1591C99.3116 71.1591 99.9669 71.4129 100.474 71.9205C100.982 72.428 101.236 73.1686 101.236 74.142V80H99.1733V74.4602C99.1733 73.9186 99.0294 73.5227 98.7415 73.2727C98.4536 73.0189 98.1013 72.892 97.6847 72.892C97.1884 72.892 96.8002 73.0473 96.5199 73.358C96.2434 73.6648 96.1051 74.0644 96.1051 74.5568V80H94.0881V74.375C94.0881 73.9242 93.9517 73.5644 93.679 73.2955C93.41 73.0265 93.0578 72.892 92.6222 72.892C92.3267 72.892 92.0578 72.9678 91.8153 73.1193C91.5729 73.267 91.3797 73.4773 91.2358 73.75C91.0919 74.0189 91.0199 74.3333 91.0199 74.6932V80H88.9631ZM103.322 80V71.2727H105.379V80H103.322ZM104.357 70.0341C104.031 70.0341 103.75 69.9261 103.516 69.7102C103.281 69.4905 103.163 69.2273 103.163 68.9205C103.163 68.6098 103.281 68.3466 103.516 68.1307C103.75 67.911 104.031 67.8011 104.357 67.8011C104.686 67.8011 104.966 67.911 105.197 68.1307C105.432 68.3466 105.55 68.6098 105.55 68.9205C105.55 69.2273 105.432 69.4905 105.197 69.7102C104.966 69.9261 104.686 70.0341 104.357 70.0341ZM111.852 71.2727V72.8636H106.835V71.2727H111.852ZM108.074 69.1818H110.131V77.375C110.131 77.6515 110.172 77.8636 110.256 78.0114C110.343 78.1553 110.456 78.2538 110.597 78.3068C110.737 78.3598 110.892 78.3864 111.062 78.3864C111.191 78.3864 111.309 78.3769 111.415 78.358C111.525 78.339 111.608 78.322 111.665 78.3068L112.011 79.9148C111.902 79.9527 111.744 79.9943 111.54 80.0398C111.339 80.0852 111.093 80.1117 110.801 80.1193C110.286 80.1345 109.822 80.0568 109.409 79.8864C108.996 79.7121 108.669 79.4432 108.426 79.0795C108.188 78.7159 108.07 78.2614 108.074 77.7159V69.1818ZM117.342 80.1705C116.467 80.1705 115.712 79.9886 115.075 79.625C114.443 79.2576 113.956 78.7386 113.615 78.0682C113.274 77.3939 113.104 76.6004 113.104 75.6875C113.104 74.7898 113.274 74.0019 113.615 73.3239C113.96 72.642 114.441 72.1117 115.058 71.733C115.676 71.3504 116.401 71.1591 117.234 71.1591C117.772 71.1591 118.28 71.2462 118.757 71.4205C119.238 71.5909 119.662 71.8561 120.03 72.2159C120.401 72.5758 120.693 73.0341 120.905 73.5909C121.117 74.1439 121.223 74.803 121.223 75.5682V76.1989H114.07V74.8125H119.251C119.248 74.4186 119.162 74.0682 118.996 73.7614C118.829 73.4508 118.596 73.2064 118.297 73.0284C118.001 72.8504 117.657 72.7614 117.263 72.7614C116.842 72.7614 116.473 72.8636 116.155 73.0682C115.837 73.2689 115.589 73.5341 115.411 73.8636C115.236 74.1894 115.147 74.5473 115.143 74.9375V76.1477C115.143 76.6553 115.236 77.0909 115.422 77.4545C115.607 77.8144 115.867 78.0909 116.2 78.2841C116.534 78.4735 116.924 78.5682 117.371 78.5682C117.67 78.5682 117.941 78.5265 118.183 78.4432C118.426 78.3561 118.636 78.2292 118.814 78.0625C118.992 77.8958 119.126 77.6894 119.217 77.4432L121.138 77.6591C121.017 78.1667 120.786 78.6098 120.445 78.9886C120.107 79.3636 119.676 79.6553 119.149 79.8636C118.623 80.0682 118.02 80.1705 117.342 80.1705ZM126.202 80.1534C125.516 80.1534 124.902 79.9773 124.361 79.625C123.819 79.2727 123.391 78.7614 123.077 78.0909C122.762 77.4205 122.605 76.6061 122.605 75.6477C122.605 74.678 122.764 73.8598 123.082 73.1932C123.404 72.5227 123.838 72.017 124.384 71.6761C124.929 71.3314 125.537 71.1591 126.207 71.1591C126.719 71.1591 127.139 71.2462 127.469 71.4205C127.798 71.5909 128.06 71.7973 128.253 72.0398C128.446 72.2784 128.596 72.5038 128.702 72.7159H128.787V68.3636H130.849V80H128.827V78.625H128.702C128.596 78.8371 128.442 79.0625 128.241 79.3011C128.041 79.536 127.776 79.7367 127.446 79.9034C127.116 80.0701 126.702 80.1534 126.202 80.1534ZM126.776 78.4659C127.211 78.4659 127.582 78.3485 127.889 78.1136C128.196 77.875 128.429 77.5436 128.588 77.1193C128.747 76.6951 128.827 76.2008 128.827 75.6364C128.827 75.072 128.747 74.5814 128.588 74.1648C128.433 73.7481 128.202 73.4242 127.895 73.1932C127.592 72.9621 127.219 72.8466 126.776 72.8466C126.317 72.8466 125.935 72.9659 125.628 73.2045C125.321 73.4432 125.09 73.7727 124.935 74.1932C124.779 74.6136 124.702 75.0947 124.702 75.6364C124.702 76.1818 124.779 76.6686 124.935 77.0966C125.094 77.5208 125.327 77.8561 125.634 78.1023C125.944 78.3447 126.325 78.4659 126.776 78.4659ZM137.101 80V68.3636H141.464C142.358 68.3636 143.108 68.5189 143.714 68.8295C144.324 69.1402 144.785 69.5758 145.095 70.1364C145.41 70.6932 145.567 71.3428 145.567 72.0852C145.567 72.8314 145.408 73.4792 145.089 74.0284C144.775 74.5739 144.311 74.9962 143.697 75.2955C143.084 75.5909 142.33 75.7386 141.436 75.7386H138.328V73.9886H141.152C141.675 73.9886 142.103 73.9167 142.436 73.7727C142.769 73.625 143.016 73.411 143.175 73.1307C143.338 72.8466 143.419 72.4981 143.419 72.0852C143.419 71.6723 143.338 71.3201 143.175 71.0284C143.012 70.733 142.764 70.5095 142.43 70.358C142.097 70.2027 141.667 70.125 141.141 70.125H139.209V80H137.101ZM143.112 74.7273L145.993 80H143.641L140.811 74.7273H143.112ZM151.155 80.1705C150.28 80.1705 149.524 79.9886 148.888 79.625C148.255 79.2576 147.768 78.7386 147.428 78.0682C147.087 77.3939 146.916 76.6004 146.916 75.6875C146.916 74.7898 147.087 74.0019 147.428 73.3239C147.772 72.642 148.253 72.1117 148.871 71.733C149.488 71.3504 150.214 71.1591 151.047 71.1591C151.585 71.1591 152.092 71.2462 152.57 71.4205C153.051 71.5909 153.475 71.8561 153.842 72.2159C154.214 72.5758 154.505 73.0341 154.717 73.5909C154.929 74.1439 155.036 74.803 155.036 75.5682V76.1989H147.882V74.8125H153.064C153.06 74.4186 152.975 74.0682 152.808 73.7614C152.642 73.4508 152.409 73.2064 152.109 73.0284C151.814 72.8504 151.469 72.7614 151.075 72.7614C150.655 72.7614 150.286 72.8636 149.967 73.0682C149.649 73.2689 149.401 73.5341 149.223 73.8636C149.049 74.1894 148.96 74.5473 148.956 74.9375V76.1477C148.956 76.6553 149.049 77.0909 149.234 77.4545C149.42 77.8144 149.679 78.0909 150.013 78.2841C150.346 78.4735 150.736 78.5682 151.183 78.5682C151.482 78.5682 151.753 78.5265 151.996 78.4432C152.238 78.3561 152.448 78.2292 152.626 78.0625C152.804 77.8958 152.939 77.6894 153.03 77.4432L154.95 77.6591C154.829 78.1667 154.598 78.6098 154.257 78.9886C153.92 79.3636 153.488 79.6553 152.962 79.8636C152.435 80.0682 151.833 80.1705 151.155 80.1705ZM158.832 68.3636V80H156.776V68.3636H158.832ZM160.947 80V71.2727H163.004V80H160.947ZM161.982 70.0341C161.656 70.0341 161.375 69.9261 161.141 69.7102C160.906 69.4905 160.788 69.2273 160.788 68.9205C160.788 68.6098 160.906 68.3466 161.141 68.1307C161.375 67.911 161.656 67.8011 161.982 67.8011C162.311 67.8011 162.591 67.911 162.822 68.1307C163.057 68.3466 163.175 68.6098 163.175 68.9205C163.175 69.2273 163.057 69.4905 162.822 69.7102C162.591 69.9261 162.311 70.0341 161.982 70.0341ZM167.631 80.1761C167.078 80.1761 166.58 80.0777 166.136 79.8807C165.697 79.6799 165.348 79.3845 165.091 78.9943C164.837 78.6042 164.71 78.1231 164.71 77.5511C164.71 77.0587 164.801 76.6515 164.983 76.3295C165.165 76.0076 165.413 75.75 165.727 75.5568C166.042 75.3636 166.396 75.2178 166.79 75.1193C167.188 75.017 167.598 74.9432 168.023 74.8977C168.534 74.8447 168.949 74.7973 169.267 74.7557C169.585 74.7102 169.816 74.642 169.96 74.5511C170.108 74.4564 170.182 74.3106 170.182 74.1136V74.0795C170.182 73.6515 170.055 73.3201 169.801 73.0852C169.547 72.8504 169.182 72.733 168.705 72.733C168.201 72.733 167.801 72.8428 167.506 73.0625C167.214 73.2822 167.017 73.5417 166.915 73.8409L164.994 73.5682C165.146 73.0379 165.396 72.5947 165.744 72.2386C166.093 71.8788 166.519 71.6098 167.023 71.4318C167.527 71.25 168.083 71.1591 168.693 71.1591C169.114 71.1591 169.532 71.2083 169.949 71.3068C170.366 71.4053 170.746 71.5682 171.091 71.7955C171.436 72.0189 171.712 72.3239 171.92 72.7102C172.133 73.0966 172.239 73.5795 172.239 74.1591V80H170.261V78.8011H170.193C170.068 79.0436 169.892 79.2708 169.665 79.483C169.441 79.6913 169.159 79.8598 168.818 79.9886C168.481 80.1136 168.085 80.1761 167.631 80.1761ZM168.165 78.6648C168.578 78.6648 168.936 78.5833 169.239 78.4205C169.542 78.2538 169.775 78.0341 169.938 77.7614C170.104 77.4886 170.188 77.1913 170.188 76.8693V75.8409C170.123 75.8939 170.013 75.9432 169.858 75.9886C169.706 76.0341 169.536 76.0739 169.347 76.108C169.157 76.142 168.97 76.1723 168.784 76.1989C168.598 76.2254 168.438 76.2481 168.301 76.267C167.994 76.3087 167.72 76.3769 167.477 76.4716C167.235 76.5663 167.044 76.6989 166.903 76.8693C166.763 77.036 166.693 77.2519 166.693 77.517C166.693 77.8958 166.831 78.1818 167.108 78.375C167.384 78.5682 167.737 78.6648 168.165 78.6648ZM174.398 80V68.3636H176.455V72.7159H176.54C176.646 72.5038 176.795 72.2784 176.989 72.0398C177.182 71.7973 177.443 71.5909 177.773 71.4205C178.102 71.2462 178.523 71.1591 179.034 71.1591C179.708 71.1591 180.316 71.3314 180.858 71.6761C181.403 72.017 181.835 72.5227 182.153 73.1932C182.475 73.8598 182.636 74.678 182.636 75.6477C182.636 76.6061 182.479 77.4205 182.165 78.0909C181.85 78.7614 181.422 79.2727 180.881 79.625C180.339 79.9773 179.725 80.1534 179.04 80.1534C178.54 80.1534 178.125 80.0701 177.795 79.9034C177.466 79.7367 177.201 79.536 177 79.3011C176.803 79.0625 176.65 78.8371 176.54 78.625H176.42V80H174.398ZM176.415 75.6364C176.415 76.2008 176.494 76.6951 176.653 77.1193C176.816 77.5436 177.049 77.875 177.352 78.1136C177.659 78.3485 178.03 78.4659 178.466 78.4659C178.92 78.4659 179.301 78.3447 179.608 78.1023C179.915 77.8561 180.146 77.5208 180.301 77.0966C180.46 76.6686 180.54 76.1818 180.54 75.6364C180.54 75.0947 180.462 74.6136 180.307 74.1932C180.152 73.7727 179.92 73.4432 179.614 73.2045C179.307 72.9659 178.924 72.8466 178.466 72.8466C178.027 72.8466 177.653 72.9621 177.347 73.1932C177.04 73.4242 176.807 73.7481 176.648 74.1648C176.492 74.5814 176.415 75.072 176.415 75.6364ZM186.442 68.3636V80H184.385V68.3636H186.442ZM192.42 80.1705C191.545 80.1705 190.79 79.9886 190.153 79.625C189.521 79.2576 189.034 78.7386 188.693 78.0682C188.352 77.3939 188.182 76.6004 188.182 75.6875C188.182 74.7898 188.352 74.0019 188.693 73.3239C189.038 72.642 189.519 72.1117 190.136 71.733C190.754 71.3504 191.479 71.1591 192.312 71.1591C192.85 71.1591 193.358 71.2462 193.835 71.4205C194.316 71.5909 194.741 71.8561 195.108 72.2159C195.479 72.5758 195.771 73.0341 195.983 73.5909C196.195 74.1439 196.301 74.803 196.301 75.5682V76.1989H189.148V74.8125H194.33C194.326 74.4186 194.241 74.0682 194.074 73.7614C193.907 73.4508 193.674 73.2064 193.375 73.0284C193.08 72.8504 192.735 72.7614 192.341 72.7614C191.92 72.7614 191.551 72.8636 191.233 73.0682C190.915 73.2689 190.667 73.5341 190.489 73.8636C190.314 74.1894 190.225 74.5473 190.222 74.9375V76.1477C190.222 76.6553 190.314 77.0909 190.5 77.4545C190.686 77.8144 190.945 78.0909 191.278 78.2841C191.612 78.4735 192.002 78.5682 192.449 78.5682C192.748 78.5682 193.019 78.5265 193.261 78.4432C193.504 78.3561 193.714 78.2292 193.892 78.0625C194.07 77.8958 194.205 77.6894 194.295 77.4432L196.216 77.6591C196.095 78.1667 195.864 78.6098 195.523 78.9886C195.186 79.3636 194.754 79.6553 194.227 79.8636C193.701 80.0682 193.098 80.1705 192.42 80.1705ZM206.044 80H202.101V68.3636H206.124C207.279 68.3636 208.271 68.5966 209.101 69.0625C209.934 69.5246 210.574 70.1894 211.021 71.0568C211.468 71.9242 211.692 72.9621 211.692 74.1705C211.692 75.3826 211.466 76.4242 211.016 77.2955C210.569 78.1667 209.923 78.8352 209.078 79.3011C208.237 79.767 207.226 80 206.044 80ZM204.209 78.1761H205.942C206.752 78.1761 207.429 78.0284 207.97 77.733C208.512 77.4337 208.919 76.9886 209.192 76.3977C209.464 75.803 209.601 75.0606 209.601 74.1705C209.601 73.2803 209.464 72.5417 209.192 71.9545C208.919 71.3636 208.516 70.9223 207.982 70.6307C207.451 70.3352 206.792 70.1875 206.004 70.1875H204.209V78.1761ZM216.115 80.1761C215.562 80.1761 215.064 80.0777 214.621 79.8807C214.181 79.6799 213.833 79.3845 213.575 78.9943C213.321 78.6042 213.195 78.1231 213.195 77.5511C213.195 77.0587 213.286 76.6515 213.467 76.3295C213.649 76.0076 213.897 75.75 214.212 75.5568C214.526 75.3636 214.88 75.2178 215.274 75.1193C215.672 75.017 216.083 74.9432 216.507 74.8977C217.018 74.8447 217.433 74.7973 217.751 74.7557C218.07 74.7102 218.301 74.642 218.445 74.5511C218.592 74.4564 218.666 74.3106 218.666 74.1136V74.0795C218.666 73.6515 218.539 73.3201 218.286 73.0852C218.032 72.8504 217.666 72.733 217.189 72.733C216.685 72.733 216.286 72.8428 215.99 73.0625C215.698 73.2822 215.501 73.5417 215.399 73.8409L213.479 73.5682C213.63 73.0379 213.88 72.5947 214.229 72.2386C214.577 71.8788 215.003 71.6098 215.507 71.4318C216.011 71.25 216.568 71.1591 217.178 71.1591C217.598 71.1591 218.017 71.2083 218.433 71.3068C218.85 71.4053 219.231 71.5682 219.575 71.7955C219.92 72.0189 220.196 72.3239 220.405 72.7102C220.617 73.0966 220.723 73.5795 220.723 74.1591V80H218.746V78.8011H218.678C218.553 79.0436 218.376 79.2708 218.149 79.483C217.926 79.6913 217.643 79.8598 217.303 79.9886C216.965 80.1136 216.57 80.1761 216.115 80.1761ZM216.649 78.6648C217.062 78.6648 217.42 78.5833 217.723 78.4205C218.026 78.2538 218.259 78.0341 218.422 77.7614C218.589 77.4886 218.672 77.1913 218.672 76.8693V75.8409C218.607 75.8939 218.498 75.9432 218.342 75.9886C218.191 76.0341 218.02 76.0739 217.831 76.108C217.642 76.142 217.454 76.1723 217.268 76.1989C217.083 76.2254 216.922 76.2481 216.786 76.267C216.479 76.3087 216.204 76.3769 215.962 76.4716C215.719 76.5663 215.528 76.6989 215.388 76.8693C215.248 77.036 215.178 77.2519 215.178 77.517C215.178 77.8958 215.316 78.1818 215.592 78.375C215.869 78.5682 216.221 78.6648 216.649 78.6648ZM227.149 71.2727V72.8636H222.132V71.2727H227.149ZM223.371 69.1818H225.428V77.375C225.428 77.6515 225.469 77.8636 225.553 78.0114C225.64 78.1553 225.753 78.2538 225.893 78.3068C226.034 78.3598 226.189 78.3864 226.359 78.3864C226.488 78.3864 226.606 78.3769 226.712 78.358C226.821 78.339 226.905 78.322 226.962 78.3068L227.308 79.9148C227.198 79.9527 227.041 79.9943 226.837 80.0398C226.636 80.0852 226.39 80.1117 226.098 80.1193C225.583 80.1345 225.119 80.0568 224.706 79.8864C224.293 79.7121 223.965 79.4432 223.723 79.0795C223.484 78.7159 223.367 78.2614 223.371 77.7159V69.1818ZM231.381 80.1761C230.828 80.1761 230.33 80.0777 229.886 79.8807C229.447 79.6799 229.098 79.3845 228.841 78.9943C228.587 78.6042 228.46 78.1231 228.46 77.5511C228.46 77.0587 228.551 76.6515 228.733 76.3295C228.915 76.0076 229.163 75.75 229.477 75.5568C229.792 75.3636 230.146 75.2178 230.54 75.1193C230.938 75.017 231.348 74.9432 231.773 74.8977C232.284 74.8447 232.699 74.7973 233.017 74.7557C233.335 74.7102 233.566 74.642 233.71 74.5511C233.858 74.4564 233.932 74.3106 233.932 74.1136V74.0795C233.932 73.6515 233.805 73.3201 233.551 73.0852C233.297 72.8504 232.932 72.733 232.455 72.733C231.951 72.733 231.551 72.8428 231.256 73.0625C230.964 73.2822 230.767 73.5417 230.665 73.8409L228.744 73.5682C228.896 73.0379 229.146 72.5947 229.494 72.2386C229.843 71.8788 230.269 71.6098 230.773 71.4318C231.277 71.25 231.833 71.1591 232.443 71.1591C232.864 71.1591 233.282 71.2083 233.699 71.3068C234.116 71.4053 234.496 71.5682 234.841 71.7955C235.186 72.0189 235.462 72.3239 235.67 72.7102C235.883 73.0966 235.989 73.5795 235.989 74.1591V80H234.011V78.8011H233.943C233.818 79.0436 233.642 79.2708 233.415 79.483C233.191 79.6913 232.909 79.8598 232.568 79.9886C232.231 80.1136 231.835 80.1761 231.381 80.1761ZM231.915 78.6648C232.328 78.6648 232.686 78.5833 232.989 78.4205C233.292 78.2538 233.525 78.0341 233.688 77.7614C233.854 77.4886 233.938 77.1913 233.938 76.8693V75.8409C233.873 75.8939 233.763 75.9432 233.608 75.9886C233.456 76.0341 233.286 76.0739 233.097 76.108C232.907 76.142 232.72 76.1723 232.534 76.1989C232.348 76.2254 232.188 76.2481 232.051 76.267C231.744 76.3087 231.47 76.3769 231.227 76.4716C230.985 76.5663 230.794 76.6989 230.653 76.8693C230.513 77.036 230.443 77.2519 230.443 77.517C230.443 77.8958 230.581 78.1818 230.858 78.375C231.134 78.5682 231.487 78.6648 231.915 78.6648Z" fill="#3D3D3D"/>
<g clip-path="url(#clip0_2836_23090)">
<path d="M262.634 65.3525L262.025 72.7904C261.608 77.8714 264.395 82.7836 269.43 85.8488L272.998 88.0202L276.567 85.8488C281.605 82.7836 284.389 77.8747 283.971 72.7904L283.362 65.3525C281.439 64.5747 277.785 63.3632 272.998 63.3632C268.212 63.3632 264.558 64.578 262.634 65.3525Z" stroke="#052161" stroke-width="1.98607" stroke-linecap="round" stroke-linejoin="round"/>
<path d="M278.705 70.9797L270.92 78.7618L267.295 75.1372" stroke="#1659F3" stroke-width="1.98607" stroke-linecap="round" stroke-linejoin="round"/>
<path d="M283.362 61.9696C281.439 61.1917 277.785 59.9802 272.998 59.9802C268.212 59.9802 264.558 61.195 262.634 61.9696" stroke="#1659F3" stroke-width="0.993035" stroke-linecap="round"/>
</g>
<path d="M76.2571 160V148.364H78.3651V153.29H83.7571V148.364H85.8707V160H83.7571V155.057H78.3651V160H76.2571ZM90.5838 160.176C90.0308 160.176 89.5327 160.078 89.0895 159.881C88.6501 159.68 88.3016 159.384 88.044 158.994C87.7902 158.604 87.6634 158.123 87.6634 157.551C87.6634 157.059 87.7543 156.652 87.9361 156.33C88.1179 156.008 88.366 155.75 88.6804 155.557C88.9948 155.364 89.349 155.218 89.7429 155.119C90.1406 155.017 90.5516 154.943 90.9759 154.898C91.4872 154.845 91.902 154.797 92.2202 154.756C92.5384 154.71 92.7694 154.642 92.9134 154.551C93.0611 154.456 93.1349 154.311 93.1349 154.114V154.08C93.1349 153.652 93.008 153.32 92.7543 153.085C92.5005 152.85 92.1349 152.733 91.6577 152.733C91.1539 152.733 90.7543 152.843 90.4588 153.062C90.1671 153.282 89.9702 153.542 89.8679 153.841L87.9474 153.568C88.099 153.038 88.349 152.595 88.6974 152.239C89.0459 151.879 89.4721 151.61 89.9759 151.432C90.4796 151.25 91.0365 151.159 91.6463 151.159C92.0668 151.159 92.4853 151.208 92.902 151.307C93.3187 151.405 93.6993 151.568 94.044 151.795C94.3887 152.019 94.6652 152.324 94.8736 152.71C95.0857 153.097 95.1918 153.58 95.1918 154.159V160H93.2145V158.801H93.1463C93.0213 159.044 92.8452 159.271 92.6179 159.483C92.3944 159.691 92.1122 159.86 91.7713 159.989C91.4342 160.114 91.0384 160.176 90.5838 160.176ZM91.1179 158.665C91.5308 158.665 91.8887 158.583 92.1918 158.42C92.4948 158.254 92.7277 158.034 92.8906 157.761C93.0573 157.489 93.1406 157.191 93.1406 156.869V155.841C93.0762 155.894 92.9664 155.943 92.8111 155.989C92.6596 156.034 92.4891 156.074 92.2997 156.108C92.1103 156.142 91.9228 156.172 91.7372 156.199C91.5516 156.225 91.3906 156.248 91.2543 156.267C90.9474 156.309 90.6728 156.377 90.4304 156.472C90.188 156.566 89.9967 156.699 89.8565 156.869C89.7164 157.036 89.6463 157.252 89.6463 157.517C89.6463 157.896 89.7846 158.182 90.0611 158.375C90.3376 158.568 90.6899 158.665 91.1179 158.665ZM97.2599 160V151.273H99.2543V152.727H99.3452C99.5043 152.223 99.777 151.835 100.163 151.562C100.554 151.286 100.999 151.148 101.499 151.148C101.612 151.148 101.739 151.153 101.879 151.165C102.023 151.172 102.143 151.186 102.237 151.205V153.097C102.15 153.066 102.012 153.04 101.822 153.017C101.637 152.991 101.457 152.977 101.283 152.977C100.908 152.977 100.571 153.059 100.271 153.222C99.9759 153.381 99.7429 153.602 99.5724 153.886C99.402 154.17 99.3168 154.498 99.3168 154.869V160H97.2599ZM106.483 160.153C105.797 160.153 105.184 159.977 104.642 159.625C104.1 159.273 103.672 158.761 103.358 158.091C103.044 157.42 102.886 156.606 102.886 155.648C102.886 154.678 103.045 153.86 103.364 153.193C103.686 152.523 104.119 152.017 104.665 151.676C105.21 151.331 105.818 151.159 106.489 151.159C107 151.159 107.42 151.246 107.75 151.42C108.08 151.591 108.341 151.797 108.534 152.04C108.727 152.278 108.877 152.504 108.983 152.716H109.068V148.364H111.131V160H109.108V158.625H108.983C108.877 158.837 108.723 159.062 108.523 159.301C108.322 159.536 108.057 159.737 107.727 159.903C107.398 160.07 106.983 160.153 106.483 160.153ZM107.057 158.466C107.492 158.466 107.864 158.348 108.17 158.114C108.477 157.875 108.71 157.544 108.869 157.119C109.028 156.695 109.108 156.201 109.108 155.636C109.108 155.072 109.028 154.581 108.869 154.165C108.714 153.748 108.483 153.424 108.176 153.193C107.873 152.962 107.5 152.847 107.057 152.847C106.598 152.847 106.216 152.966 105.909 153.205C105.602 153.443 105.371 153.773 105.216 154.193C105.061 154.614 104.983 155.095 104.983 155.636C104.983 156.182 105.061 156.669 105.216 157.097C105.375 157.521 105.608 157.856 105.915 158.102C106.225 158.345 106.606 158.466 107.057 158.466ZM121.649 151.273V152.864H116.632V151.273H121.649ZM117.871 149.182H119.928V157.375C119.928 157.652 119.969 157.864 120.053 158.011C120.14 158.155 120.253 158.254 120.393 158.307C120.534 158.36 120.689 158.386 120.859 158.386C120.988 158.386 121.106 158.377 121.212 158.358C121.321 158.339 121.405 158.322 121.462 158.307L121.808 159.915C121.698 159.953 121.541 159.994 121.337 160.04C121.136 160.085 120.89 160.112 120.598 160.119C120.083 160.134 119.619 160.057 119.206 159.886C118.793 159.712 118.465 159.443 118.223 159.08C117.984 158.716 117.867 158.261 117.871 157.716V149.182ZM127.082 160.17C126.23 160.17 125.491 159.983 124.866 159.608C124.241 159.233 123.757 158.708 123.412 158.034C123.071 157.36 122.901 156.572 122.901 155.67C122.901 154.769 123.071 153.979 123.412 153.301C123.757 152.623 124.241 152.097 124.866 151.722C125.491 151.347 126.23 151.159 127.082 151.159C127.935 151.159 128.673 151.347 129.298 151.722C129.923 152.097 130.406 152.623 130.747 153.301C131.092 153.979 131.264 154.769 131.264 155.67C131.264 156.572 131.092 157.36 130.747 158.034C130.406 158.708 129.923 159.233 129.298 159.608C128.673 159.983 127.935 160.17 127.082 160.17ZM127.094 158.523C127.556 158.523 127.942 158.396 128.253 158.142C128.563 157.884 128.795 157.54 128.946 157.108C129.101 156.676 129.179 156.195 129.179 155.665C129.179 155.131 129.101 154.648 128.946 154.216C128.795 153.78 128.563 153.434 128.253 153.176C127.942 152.919 127.556 152.79 127.094 152.79C126.62 152.79 126.226 152.919 125.912 153.176C125.601 153.434 125.368 153.78 125.213 154.216C125.062 154.648 124.986 155.131 124.986 155.665C124.986 156.195 125.062 156.676 125.213 157.108C125.368 157.54 125.601 157.884 125.912 158.142C126.226 158.396 126.62 158.523 127.094 158.523ZM136.558 150.131V148.364H145.842V150.131H142.246V160H140.155V150.131H136.558ZM146.635 160V151.273H148.629V152.727H148.72C148.879 152.223 149.152 151.835 149.538 151.562C149.929 151.286 150.374 151.148 150.874 151.148C150.987 151.148 151.114 151.153 151.254 151.165C151.398 151.172 151.518 151.186 151.612 151.205V153.097C151.525 153.066 151.387 153.04 151.197 153.017C151.012 152.991 150.832 152.977 150.658 152.977C150.283 152.977 149.946 153.059 149.646 153.222C149.351 153.381 149.118 153.602 148.947 153.886C148.777 154.17 148.692 154.498 148.692 154.869V160H146.635ZM155.334 160.176C154.781 160.176 154.283 160.078 153.839 159.881C153.4 159.68 153.052 159.384 152.794 158.994C152.54 158.604 152.413 158.123 152.413 157.551C152.413 157.059 152.504 156.652 152.686 156.33C152.868 156.008 153.116 155.75 153.43 155.557C153.745 155.364 154.099 155.218 154.493 155.119C154.891 155.017 155.302 154.943 155.726 154.898C156.237 154.845 156.652 154.797 156.97 154.756C157.288 154.71 157.519 154.642 157.663 154.551C157.811 154.456 157.885 154.311 157.885 154.114V154.08C157.885 153.652 157.758 153.32 157.504 153.085C157.25 152.85 156.885 152.733 156.408 152.733C155.904 152.733 155.504 152.843 155.209 153.062C154.917 153.282 154.72 153.542 154.618 153.841L152.697 153.568C152.849 153.038 153.099 152.595 153.447 152.239C153.796 151.879 154.222 151.61 154.726 151.432C155.23 151.25 155.786 151.159 156.396 151.159C156.817 151.159 157.235 151.208 157.652 151.307C158.069 151.405 158.449 151.568 158.794 151.795C159.139 152.019 159.415 152.324 159.624 152.71C159.836 153.097 159.942 153.58 159.942 154.159V160H157.964V158.801H157.896C157.771 159.044 157.595 159.271 157.368 159.483C157.144 159.691 156.862 159.86 156.521 159.989C156.184 160.114 155.788 160.176 155.334 160.176ZM155.868 158.665C156.281 158.665 156.639 158.583 156.942 158.42C157.245 158.254 157.478 158.034 157.641 157.761C157.807 157.489 157.891 157.191 157.891 156.869V155.841C157.826 155.894 157.716 155.943 157.561 155.989C157.41 156.034 157.239 156.074 157.05 156.108C156.86 156.142 156.673 156.172 156.487 156.199C156.302 156.225 156.141 156.248 156.004 156.267C155.697 156.309 155.423 156.377 155.18 156.472C154.938 156.566 154.747 156.699 154.607 156.869C154.466 157.036 154.396 157.252 154.396 157.517C154.396 157.896 154.535 158.182 154.811 158.375C155.088 158.568 155.44 158.665 155.868 158.665ZM165.817 160.17C164.946 160.17 164.197 159.979 163.572 159.597C162.951 159.214 162.472 158.686 162.135 158.011C161.802 157.333 161.635 156.553 161.635 155.67C161.635 154.784 161.805 154.002 162.146 153.324C162.487 152.642 162.968 152.112 163.589 151.733C164.214 151.35 164.953 151.159 165.805 151.159C166.514 151.159 167.141 151.29 167.686 151.551C168.235 151.809 168.673 152.174 168.999 152.648C169.324 153.117 169.51 153.667 169.555 154.295H167.589C167.51 153.875 167.321 153.525 167.021 153.244C166.726 152.96 166.33 152.818 165.834 152.818C165.413 152.818 165.044 152.932 164.726 153.159C164.408 153.383 164.16 153.705 163.982 154.125C163.807 154.545 163.72 155.049 163.72 155.636C163.72 156.231 163.807 156.742 163.982 157.17C164.156 157.595 164.4 157.922 164.714 158.153C165.033 158.381 165.406 158.494 165.834 158.494C166.137 158.494 166.408 158.437 166.646 158.324C166.889 158.206 167.091 158.038 167.254 157.818C167.417 157.598 167.529 157.331 167.589 157.017H169.555C169.506 157.634 169.324 158.182 169.01 158.659C168.696 159.133 168.268 159.504 167.726 159.773C167.184 160.038 166.548 160.17 165.817 160.17ZM173.119 157.261L173.114 154.778H173.443L176.58 151.273H178.983L175.125 155.568H174.699L173.119 157.261ZM171.244 160V148.364H173.301V160H171.244ZM176.722 160L173.881 156.028L175.267 154.58L179.182 160H176.722ZM183.902 150.131V148.364H193.186V150.131H189.589V160H187.499V150.131H183.902ZM193.979 160V151.273H195.973V152.727H196.064C196.223 152.223 196.496 151.835 196.882 151.562C197.272 151.286 197.717 151.148 198.217 151.148C198.331 151.148 198.458 151.153 198.598 151.165C198.742 151.172 198.861 151.186 198.956 151.205V153.097C198.869 153.066 198.731 153.04 198.541 153.017C198.356 152.991 198.176 152.977 198.001 152.977C197.626 152.977 197.289 153.059 196.99 153.222C196.695 153.381 196.462 153.602 196.291 153.886C196.121 154.17 196.036 154.498 196.036 154.869V160H193.979ZM203.827 160.17C202.952 160.17 202.196 159.989 201.56 159.625C200.927 159.258 200.44 158.739 200.099 158.068C199.759 157.394 199.588 156.6 199.588 155.688C199.588 154.79 199.759 154.002 200.099 153.324C200.444 152.642 200.925 152.112 201.543 151.733C202.16 151.35 202.885 151.159 203.719 151.159C204.257 151.159 204.764 151.246 205.241 151.42C205.723 151.591 206.147 151.856 206.514 152.216C206.885 152.576 207.177 153.034 207.389 153.591C207.601 154.144 207.707 154.803 207.707 155.568V156.199H200.554V154.812H205.736C205.732 154.419 205.647 154.068 205.48 153.761C205.313 153.451 205.08 153.206 204.781 153.028C204.486 152.85 204.141 152.761 203.747 152.761C203.327 152.761 202.957 152.864 202.639 153.068C202.321 153.269 202.073 153.534 201.895 153.864C201.721 154.189 201.632 154.547 201.628 154.938V156.148C201.628 156.655 201.721 157.091 201.906 157.455C202.092 157.814 202.351 158.091 202.685 158.284C203.018 158.473 203.408 158.568 203.855 158.568C204.154 158.568 204.425 158.527 204.668 158.443C204.91 158.356 205.12 158.229 205.298 158.062C205.476 157.896 205.611 157.689 205.702 157.443L207.622 157.659C207.501 158.167 207.27 158.61 206.929 158.989C206.592 159.364 206.16 159.655 205.634 159.864C205.107 160.068 204.505 160.17 203.827 160.17ZM211.504 154.886V160H209.447V151.273H211.413V152.756H211.516C211.716 152.267 212.036 151.879 212.476 151.591C212.919 151.303 213.466 151.159 214.118 151.159C214.72 151.159 215.245 151.288 215.692 151.545C216.143 151.803 216.491 152.176 216.737 152.665C216.987 153.153 217.11 153.746 217.107 154.443V160H215.05V154.761C215.05 154.178 214.898 153.722 214.595 153.392C214.296 153.062 213.881 152.898 213.351 152.898C212.991 152.898 212.671 152.977 212.391 153.136C212.114 153.292 211.896 153.517 211.737 153.812C211.582 154.108 211.504 154.466 211.504 154.886ZM222.436 160.153C221.75 160.153 221.137 159.977 220.595 159.625C220.054 159.273 219.625 158.761 219.311 158.091C218.997 157.42 218.839 156.606 218.839 155.648C218.839 154.678 218.999 153.86 219.317 153.193C219.639 152.523 220.072 152.017 220.618 151.676C221.163 151.331 221.771 151.159 222.442 151.159C222.953 151.159 223.374 151.246 223.703 151.42C224.033 151.591 224.294 151.797 224.487 152.04C224.68 152.278 224.83 152.504 224.936 152.716H225.021V148.364H227.084V160H225.061V158.625H224.936C224.83 158.837 224.677 159.062 224.476 159.301C224.275 159.536 224.01 159.737 223.68 159.903C223.351 160.07 222.936 160.153 222.436 160.153ZM223.01 158.466C223.446 158.466 223.817 158.348 224.124 158.114C224.43 157.875 224.663 157.544 224.822 157.119C224.982 156.695 225.061 156.201 225.061 155.636C225.061 155.072 224.982 154.581 224.822 154.165C224.667 153.748 224.436 153.424 224.129 153.193C223.826 152.962 223.453 152.847 223.01 152.847C222.552 152.847 222.169 152.966 221.862 153.205C221.555 153.443 221.324 153.773 221.169 154.193C221.014 154.614 220.936 155.095 220.936 155.636C220.936 156.182 221.014 156.669 221.169 157.097C221.328 157.521 221.561 157.856 221.868 158.102C222.179 158.345 222.559 158.466 223.01 158.466ZM236.173 153.58L234.298 153.784C234.245 153.595 234.152 153.417 234.02 153.25C233.891 153.083 233.717 152.949 233.497 152.847C233.277 152.744 233.009 152.693 232.69 152.693C232.262 152.693 231.902 152.786 231.611 152.972C231.323 153.157 231.181 153.398 231.185 153.693C231.181 153.947 231.274 154.153 231.463 154.312C231.656 154.472 231.974 154.602 232.418 154.705L233.906 155.023C234.732 155.201 235.346 155.483 235.747 155.869C236.152 156.256 236.357 156.761 236.361 157.386C236.357 157.936 236.196 158.42 235.878 158.841C235.563 159.258 235.126 159.583 234.565 159.818C234.005 160.053 233.361 160.17 232.634 160.17C231.565 160.17 230.705 159.947 230.054 159.5C229.402 159.049 229.014 158.422 228.889 157.619L230.895 157.426C230.986 157.82 231.179 158.117 231.474 158.318C231.77 158.519 232.154 158.619 232.628 158.619C233.116 158.619 233.509 158.519 233.804 158.318C234.103 158.117 234.253 157.869 234.253 157.574C234.253 157.324 234.156 157.117 233.963 156.955C233.774 156.792 233.478 156.667 233.077 156.58L231.588 156.267C230.751 156.093 230.132 155.799 229.73 155.386C229.329 154.97 229.13 154.443 229.134 153.807C229.13 153.269 229.276 152.803 229.571 152.409C229.87 152.011 230.285 151.705 230.815 151.489C231.349 151.269 231.965 151.159 232.662 151.159C233.685 151.159 234.49 151.377 235.077 151.812C235.668 152.248 236.033 152.837 236.173 153.58Z" fill="#3D3D3D"/>
<g clip-path="url(#clip1_2836_23090)">
<path d="M272.998 168.537V153.77" stroke="#1659F3" stroke-width="0.993035" stroke-linecap="round" stroke-linejoin="round"/>
<path d="M272.998 153.77V140.288" stroke="#1659F3" stroke-width="1.98607" stroke-linecap="round" stroke-linejoin="round"/>
<path d="M275.276 142.671H270.724C270.4 142.671 270.198 142.32 270.36 142.042L272.638 138.1C272.8 137.819 273.204 137.819 273.366 138.1L275.643 142.042C275.805 142.324 275.604 142.671 275.279 142.671H275.276Z" fill="#1659F3"/>
<path d="M260.635 145.478V150.03C260.635 150.354 260.284 150.556 260.006 150.394L256.064 148.116C255.783 147.954 255.783 147.55 256.064 147.388L260.006 145.111C260.288 144.949 260.635 145.151 260.635 145.475V145.478Z" fill="#052161"/>
<path d="M268.099 161.095C267.004 161.095 266.113 161.986 266.113 163.081C266.113 164.177 267.004 165.067 268.099 165.067C269.195 165.067 270.085 164.177 270.085 163.081C270.085 161.986 269.195 161.095 268.099 161.095Z" fill="#052161"/>
<path d="M272.998 170.112C274.095 170.112 274.984 169.223 274.984 168.126C274.984 167.029 274.095 166.14 272.998 166.14C271.901 166.14 271.012 167.029 271.012 168.126C271.012 169.223 271.901 170.112 272.998 170.112Z" fill="#1659F3"/>
<path d="M268.099 163.081V150.907C268.099 149.166 266.689 147.755 264.948 147.755H258.252" stroke="#052161" stroke-width="1.98607"/>
<path d="M285.365 145.478V150.03C285.365 150.354 285.716 150.556 285.994 150.394L289.936 148.116C290.218 147.954 290.218 147.55 289.936 147.388L285.994 145.111C285.712 144.948 285.365 145.15 285.365 145.475V145.478Z" fill="#052161"/>
<path d="M277.897 161.095C276.802 161.095 275.911 161.986 275.911 163.081C275.911 164.177 276.802 165.067 277.897 165.067C278.993 165.067 279.883 164.177 279.883 163.081C279.883 161.986 278.993 161.095 277.897 161.095Z" fill="#052161"/>
<path d="M277.897 163.081V150.907C277.897 149.166 279.307 147.755 281.049 147.755H287.745" stroke="#052161" stroke-width="1.98607"/>
</g>
<path d="M58.983 228.364H61.0909V235.966C61.0909 236.799 60.8939 237.532 60.5 238.165C60.1098 238.797 59.5606 239.292 58.8523 239.648C58.1439 240 57.3163 240.176 56.3693 240.176C55.4186 240.176 54.589 240 53.8807 239.648C53.1723 239.292 52.6231 238.797 52.233 238.165C51.8428 237.532 51.6477 236.799 51.6477 235.966V228.364H53.7557V235.79C53.7557 236.275 53.8617 236.706 54.0739 237.085C54.2898 237.464 54.5928 237.761 54.983 237.977C55.3731 238.189 55.8352 238.295 56.3693 238.295C56.9034 238.295 57.3655 238.189 57.7557 237.977C58.1496 237.761 58.4527 237.464 58.6648 237.085C58.8769 236.706 58.983 236.275 58.983 235.79V228.364ZM65.348 234.886V240H63.2912V231.273H65.2571V232.756H65.3594C65.5601 232.267 65.8802 231.879 66.3196 231.591C66.7628 231.303 67.3101 231.159 67.9616 231.159C68.5639 231.159 69.0885 231.288 69.5355 231.545C69.9863 231.803 70.3348 232.176 70.581 232.665C70.831 233.153 70.9541 233.746 70.9503 234.443V240H68.8935V234.761C68.8935 234.178 68.742 233.722 68.4389 233.392C68.1397 233.062 67.7249 232.898 67.1946 232.898C66.8348 232.898 66.5147 232.977 66.2344 233.136C65.9579 233.292 65.7401 233.517 65.581 233.812C65.4257 234.108 65.348 234.466 65.348 234.886ZM76.848 240.17C75.9768 240.17 75.2287 239.979 74.6037 239.597C73.9825 239.214 73.5033 238.686 73.1662 238.011C72.8329 237.333 72.6662 236.553 72.6662 235.67C72.6662 234.784 72.8366 234.002 73.1776 233.324C73.5185 232.642 73.9995 232.112 74.6207 231.733C75.2457 231.35 75.9844 231.159 76.8366 231.159C77.545 231.159 78.1719 231.29 78.7173 231.551C79.2666 231.809 79.7041 232.174 80.0298 232.648C80.3556 233.117 80.5412 233.667 80.5866 234.295H78.6207C78.5412 233.875 78.3518 233.525 78.0526 233.244C77.7571 232.96 77.3613 232.818 76.8651 232.818C76.4446 232.818 76.0753 232.932 75.7571 233.159C75.4389 233.383 75.1908 233.705 75.0128 234.125C74.8385 234.545 74.7514 235.049 74.7514 235.636C74.7514 236.231 74.8385 236.742 75.0128 237.17C75.187 237.595 75.4313 237.922 75.7457 238.153C76.0639 238.381 76.437 238.494 76.8651 238.494C77.1681 238.494 77.4389 238.437 77.6776 238.324C77.92 238.206 78.1226 238.038 78.2855 237.818C78.4484 237.598 78.5601 237.331 78.6207 237.017H80.5866C80.5374 237.634 80.3556 238.182 80.0412 238.659C79.7268 239.133 79.2988 239.504 78.7571 239.773C78.2154 240.038 77.5791 240.17 76.848 240.17ZM84.3324 228.364V240H82.2756V228.364H84.3324ZM90.3111 240.17C89.4361 240.17 88.6804 239.989 88.044 239.625C87.4115 239.258 86.9247 238.739 86.5838 238.068C86.2429 237.394 86.0724 236.6 86.0724 235.688C86.0724 234.79 86.2429 234.002 86.5838 233.324C86.9285 232.642 87.4096 232.112 88.027 231.733C88.6444 231.35 89.3698 231.159 90.2031 231.159C90.741 231.159 91.2486 231.246 91.7259 231.42C92.2069 231.591 92.6312 231.856 92.9986 232.216C93.3698 232.576 93.6615 233.034 93.8736 233.591C94.0857 234.144 94.1918 234.803 94.1918 235.568V236.199H87.0384V234.812H92.2202C92.2164 234.419 92.1312 234.068 91.9645 233.761C91.7978 233.451 91.5649 233.206 91.2656 233.028C90.9702 232.85 90.6255 232.761 90.2315 232.761C89.8111 232.761 89.4418 232.864 89.1236 233.068C88.8054 233.269 88.5573 233.534 88.3793 233.864C88.205 234.189 88.116 234.547 88.1122 234.938V236.148C88.1122 236.655 88.205 237.091 88.3906 237.455C88.5762 237.814 88.8357 238.091 89.169 238.284C89.5024 238.473 89.8925 238.568 90.3395 238.568C90.6387 238.568 90.9096 238.527 91.152 238.443C91.3944 238.356 91.6046 238.229 91.7827 238.062C91.9607 237.896 92.0952 237.689 92.1861 237.443L94.1065 237.659C93.9853 238.167 93.7543 238.61 93.4134 238.989C93.0762 239.364 92.6444 239.655 92.1179 239.864C91.5914 240.068 90.9891 240.17 90.3111 240.17ZM98.4432 240.176C97.8902 240.176 97.392 240.078 96.9489 239.881C96.5095 239.68 96.161 239.384 95.9034 238.994C95.6496 238.604 95.5227 238.123 95.5227 237.551C95.5227 237.059 95.6136 236.652 95.7955 236.33C95.9773 236.008 96.2254 235.75 96.5398 235.557C96.8542 235.364 97.2083 235.218 97.6023 235.119C98 235.017 98.411 234.943 98.8352 234.898C99.3466 234.845 99.7614 234.797 100.08 234.756C100.398 234.71 100.629 234.642 100.773 234.551C100.92 234.456 100.994 234.311 100.994 234.114V234.08C100.994 233.652 100.867 233.32 100.614 233.085C100.36 232.85 99.9943 232.733 99.517 232.733C99.0133 232.733 98.6136 232.843 98.3182 233.062C98.0265 233.282 97.8295 233.542 97.7273 233.841L95.8068 233.568C95.9583 233.038 96.2083 232.595 96.5568 232.239C96.9053 231.879 97.3314 231.61 97.8352 231.432C98.339 231.25 98.8958 231.159 99.5057 231.159C99.9261 231.159 100.345 231.208 100.761 231.307C101.178 231.405 101.559 231.568 101.903 231.795C102.248 232.019 102.525 232.324 102.733 232.71C102.945 233.097 103.051 233.58 103.051 234.159V240H101.074V238.801H101.006C100.881 239.044 100.705 239.271 100.477 239.483C100.254 239.691 99.9716 239.86 99.6307 239.989C99.2936 240.114 98.8977 240.176 98.4432 240.176ZM98.9773 238.665C99.3902 238.665 99.7481 238.583 100.051 238.42C100.354 238.254 100.587 238.034 100.75 237.761C100.917 237.489 101 237.191 101 236.869V235.841C100.936 235.894 100.826 235.943 100.67 235.989C100.519 236.034 100.348 236.074 100.159 236.108C99.9697 236.142 99.7822 236.172 99.5966 236.199C99.411 236.225 99.25 236.248 99.1136 236.267C98.8068 236.309 98.5322 236.377 98.2898 236.472C98.0473 236.566 97.8561 236.699 97.7159 236.869C97.5758 237.036 97.5057 237.252 97.5057 237.517C97.5057 237.896 97.6439 238.182 97.9205 238.375C98.197 238.568 98.5492 238.665 98.9773 238.665ZM105.119 240V231.273H107.114V232.727H107.205C107.364 232.223 107.636 231.835 108.023 231.562C108.413 231.286 108.858 231.148 109.358 231.148C109.472 231.148 109.598 231.153 109.739 231.165C109.883 231.172 110.002 231.186 110.097 231.205V233.097C110.009 233.066 109.871 233.04 109.682 233.017C109.496 232.991 109.316 232.977 109.142 232.977C108.767 232.977 108.43 233.059 108.131 233.222C107.835 233.381 107.602 233.602 107.432 233.886C107.261 234.17 107.176 234.498 107.176 234.869V240H105.119ZM117.017 240H114.767L118.864 228.364H121.466L125.568 240H123.318L120.21 230.75H120.119L117.017 240ZM117.091 235.438H123.227V237.131H117.091V235.438ZM132.572 236.33V231.273H134.629V240H132.635V238.449H132.544C132.347 238.937 132.023 239.337 131.572 239.648C131.125 239.958 130.574 240.114 129.919 240.114C129.347 240.114 128.841 239.987 128.402 239.733C127.966 239.475 127.625 239.102 127.379 238.614C127.133 238.121 127.01 237.527 127.01 236.83V231.273H129.067V236.511C129.067 237.064 129.218 237.504 129.521 237.83C129.824 238.155 130.222 238.318 130.714 238.318C131.018 238.318 131.311 238.244 131.595 238.097C131.879 237.949 132.112 237.729 132.294 237.438C132.48 237.142 132.572 236.773 132.572 236.33ZM139.983 240.153C139.297 240.153 138.684 239.977 138.142 239.625C137.6 239.273 137.172 238.761 136.858 238.091C136.544 237.42 136.386 236.606 136.386 235.648C136.386 234.678 136.545 233.86 136.864 233.193C137.186 232.523 137.619 232.017 138.165 231.676C138.71 231.331 139.318 231.159 139.989 231.159C140.5 231.159 140.92 231.246 141.25 231.42C141.58 231.591 141.841 231.797 142.034 232.04C142.227 232.278 142.377 232.504 142.483 232.716H142.568V228.364H144.631V240H142.608V238.625H142.483C142.377 238.837 142.223 239.062 142.023 239.301C141.822 239.536 141.557 239.737 141.227 239.903C140.898 240.07 140.483 240.153 139.983 240.153ZM140.557 238.466C140.992 238.466 141.364 238.348 141.67 238.114C141.977 237.875 142.21 237.544 142.369 237.119C142.528 236.695 142.608 236.201 142.608 235.636C142.608 235.072 142.528 234.581 142.369 234.165C142.214 233.748 141.983 233.424 141.676 233.193C141.373 232.962 141 232.847 140.557 232.847C140.098 232.847 139.716 232.966 139.409 233.205C139.102 233.443 138.871 233.773 138.716 234.193C138.561 234.614 138.483 235.095 138.483 235.636C138.483 236.182 138.561 236.669 138.716 237.097C138.875 237.521 139.108 237.856 139.415 238.102C139.725 238.345 140.106 238.466 140.557 238.466ZM146.822 240V231.273H148.879V240H146.822ZM147.857 230.034C147.531 230.034 147.25 229.926 147.016 229.71C146.781 229.491 146.663 229.227 146.663 228.92C146.663 228.61 146.781 228.347 147.016 228.131C147.25 227.911 147.531 227.801 147.857 227.801C148.186 227.801 148.466 227.911 148.697 228.131C148.932 228.347 149.05 228.61 149.05 228.92C149.05 229.227 148.932 229.491 148.697 229.71C148.466 229.926 148.186 230.034 147.857 230.034ZM154.858 240.17C153.983 240.17 153.227 239.989 152.591 239.625C151.958 239.258 151.472 238.739 151.131 238.068C150.79 237.394 150.619 236.6 150.619 235.688C150.619 234.79 150.79 234.002 151.131 233.324C151.475 232.642 151.956 232.112 152.574 231.733C153.191 231.35 153.917 231.159 154.75 231.159C155.288 231.159 155.795 231.246 156.273 231.42C156.754 231.591 157.178 231.856 157.545 232.216C157.917 232.576 158.208 233.034 158.42 233.591C158.633 234.144 158.739 234.803 158.739 235.568V236.199H151.585V234.812H156.767C156.763 234.419 156.678 234.068 156.511 233.761C156.345 233.451 156.112 233.206 155.812 233.028C155.517 232.85 155.172 232.761 154.778 232.761C154.358 232.761 153.989 232.864 153.67 233.068C153.352 233.269 153.104 233.534 152.926 233.864C152.752 234.189 152.663 234.547 152.659 234.938V236.148C152.659 236.655 152.752 237.091 152.938 237.455C153.123 237.814 153.383 238.091 153.716 238.284C154.049 238.473 154.439 238.568 154.886 238.568C155.186 238.568 155.456 238.527 155.699 238.443C155.941 238.356 156.152 238.229 156.33 238.062C156.508 237.896 156.642 237.689 156.733 237.443L158.653 237.659C158.532 238.167 158.301 238.61 157.96 238.989C157.623 239.364 157.191 239.655 156.665 239.864C156.138 240.068 155.536 240.17 154.858 240.17ZM162.536 234.886V240H160.479V231.273H162.445V232.756H162.547C162.748 232.267 163.068 231.879 163.507 231.591C163.95 231.303 164.498 231.159 165.149 231.159C165.751 231.159 166.276 231.288 166.723 231.545C167.174 231.803 167.522 232.176 167.768 232.665C168.018 233.153 168.142 233.746 168.138 234.443V240H166.081V234.761C166.081 234.178 165.929 233.722 165.626 233.392C165.327 233.062 164.912 232.898 164.382 232.898C164.022 232.898 163.702 232.977 163.422 233.136C163.145 233.292 162.928 233.517 162.768 233.812C162.613 234.108 162.536 234.466 162.536 234.886ZM174.036 240.17C173.164 240.17 172.416 239.979 171.791 239.597C171.17 239.214 170.691 238.686 170.354 238.011C170.02 237.333 169.854 236.553 169.854 235.67C169.854 234.784 170.024 234.002 170.365 233.324C170.706 232.642 171.187 232.112 171.808 231.733C172.433 231.35 173.172 231.159 174.024 231.159C174.732 231.159 175.359 231.29 175.905 231.551C176.454 231.809 176.892 232.174 177.217 232.648C177.543 233.117 177.729 233.667 177.774 234.295H175.808C175.729 233.875 175.539 233.525 175.24 233.244C174.945 232.96 174.549 232.818 174.053 232.818C173.632 232.818 173.263 232.932 172.945 233.159C172.626 233.383 172.378 233.705 172.2 234.125C172.026 234.545 171.939 235.049 171.939 235.636C171.939 236.231 172.026 236.742 172.2 237.17C172.375 237.595 172.619 237.922 172.933 238.153C173.251 238.381 173.625 238.494 174.053 238.494C174.356 238.494 174.626 238.437 174.865 238.324C175.107 238.206 175.31 238.038 175.473 237.818C175.636 237.598 175.748 237.331 175.808 237.017H177.774C177.725 237.634 177.543 238.182 177.229 238.659C176.914 239.133 176.486 239.504 175.945 239.773C175.403 240.038 174.767 240.17 174.036 240.17ZM183.327 240.17C182.452 240.17 181.696 239.989 181.06 239.625C180.427 239.258 179.94 238.739 179.599 238.068C179.259 237.394 179.088 236.6 179.088 235.688C179.088 234.79 179.259 234.002 179.599 233.324C179.944 232.642 180.425 232.112 181.043 231.733C181.66 231.35 182.385 231.159 183.219 231.159C183.757 231.159 184.264 231.246 184.741 231.42C185.223 231.591 185.647 231.856 186.014 232.216C186.385 232.576 186.677 233.034 186.889 233.591C187.101 234.144 187.207 234.803 187.207 235.568V236.199H180.054V234.812H185.236C185.232 234.419 185.147 234.068 184.98 233.761C184.813 233.451 184.58 233.206 184.281 233.028C183.986 232.85 183.641 232.761 183.247 232.761C182.827 232.761 182.457 232.864 182.139 233.068C181.821 233.269 181.573 233.534 181.395 233.864C181.221 234.189 181.132 234.547 181.128 234.938V236.148C181.128 236.655 181.221 237.091 181.406 237.455C181.592 237.814 181.851 238.091 182.185 238.284C182.518 238.473 182.908 238.568 183.355 238.568C183.654 238.568 183.925 238.527 184.168 238.443C184.41 238.356 184.62 238.229 184.798 238.062C184.976 237.896 185.111 237.689 185.202 237.443L187.122 237.659C187.001 238.167 186.77 238.61 186.429 238.989C186.092 239.364 185.66 239.655 185.134 239.864C184.607 240.068 184.005 240.17 183.327 240.17ZM199.331 231.562C199.278 231.066 199.054 230.68 198.661 230.403C198.27 230.127 197.763 229.989 197.138 229.989C196.698 229.989 196.321 230.055 196.007 230.188C195.693 230.32 195.452 230.5 195.286 230.727C195.119 230.955 195.034 231.214 195.03 231.506C195.03 231.748 195.085 231.958 195.195 232.136C195.308 232.314 195.462 232.466 195.655 232.591C195.848 232.712 196.062 232.814 196.297 232.898C196.532 232.981 196.768 233.051 197.007 233.108L198.098 233.381C198.537 233.483 198.96 233.621 199.365 233.795C199.774 233.97 200.14 234.189 200.462 234.455C200.787 234.72 201.045 235.04 201.234 235.415C201.424 235.79 201.518 236.229 201.518 236.733C201.518 237.415 201.344 238.015 200.996 238.534C200.647 239.049 200.143 239.453 199.484 239.744C198.829 240.032 198.036 240.176 197.104 240.176C196.198 240.176 195.412 240.036 194.746 239.756C194.083 239.475 193.564 239.066 193.189 238.528C192.818 237.991 192.617 237.335 192.587 236.562H194.661C194.691 236.968 194.816 237.305 195.036 237.574C195.255 237.843 195.541 238.044 195.893 238.176C196.25 238.309 196.647 238.375 197.087 238.375C197.545 238.375 197.946 238.307 198.291 238.17C198.64 238.03 198.912 237.837 199.109 237.591C199.306 237.341 199.407 237.049 199.411 236.716C199.407 236.413 199.318 236.163 199.143 235.966C198.969 235.765 198.725 235.598 198.411 235.466C198.1 235.33 197.736 235.208 197.32 235.102L195.996 234.761C195.037 234.515 194.28 234.142 193.723 233.642C193.17 233.138 192.893 232.47 192.893 231.636C192.893 230.951 193.079 230.35 193.45 229.835C193.825 229.32 194.335 228.92 194.979 228.636C195.623 228.348 196.352 228.205 197.166 228.205C197.992 228.205 198.715 228.348 199.337 228.636C199.962 228.92 200.452 229.316 200.808 229.824C201.164 230.328 201.348 230.907 201.359 231.562H199.331ZM205.364 234.886V240H203.307V228.364H205.318V232.756H205.42C205.625 232.263 205.941 231.875 206.369 231.591C206.801 231.303 207.35 231.159 208.017 231.159C208.623 231.159 209.152 231.286 209.602 231.54C210.053 231.794 210.402 232.165 210.648 232.653C210.898 233.142 211.023 233.739 211.023 234.443V240H208.966V234.761C208.966 234.174 208.814 233.718 208.511 233.392C208.212 233.062 207.792 232.898 207.25 232.898C206.886 232.898 206.561 232.977 206.273 233.136C205.989 233.292 205.765 233.517 205.602 233.812C205.443 234.108 205.364 234.466 205.364 234.886ZM213.119 240V231.273H215.176V240H213.119ZM214.153 230.034C213.828 230.034 213.547 229.926 213.312 229.71C213.078 229.491 212.96 229.227 212.96 228.92C212.96 228.61 213.078 228.347 213.312 228.131C213.547 227.911 213.828 227.801 214.153 227.801C214.483 227.801 214.763 227.911 214.994 228.131C215.229 228.347 215.347 228.61 215.347 228.92C215.347 229.227 215.229 229.491 214.994 229.71C214.763 229.926 214.483 230.034 214.153 230.034ZM221.712 231.273V232.864H216.553V231.273H221.712ZM217.842 240V230.449C217.842 229.862 217.964 229.373 218.206 228.983C218.452 228.593 218.782 228.301 219.195 228.108C219.607 227.915 220.066 227.818 220.57 227.818C220.926 227.818 221.242 227.847 221.518 227.903C221.795 227.96 222 228.011 222.132 228.057L221.723 229.648C221.636 229.621 221.526 229.595 221.393 229.568C221.261 229.538 221.113 229.523 220.95 229.523C220.568 229.523 220.297 229.616 220.138 229.801C219.982 229.983 219.905 230.244 219.905 230.585V240H217.842ZM227.68 231.273V232.864H222.663V231.273H227.68ZM223.902 229.182H225.959V237.375C225.959 237.652 226 237.864 226.084 238.011C226.171 238.155 226.285 238.254 226.425 238.307C226.565 238.36 226.72 238.386 226.891 238.386C227.019 238.386 227.137 238.377 227.243 238.358C227.353 238.339 227.436 238.322 227.493 238.307L227.839 239.915C227.73 239.953 227.572 239.994 227.368 240.04C227.167 240.085 226.921 240.112 226.629 240.119C226.114 240.134 225.65 240.057 225.237 239.886C224.824 239.712 224.497 239.443 224.254 239.08C224.016 238.716 223.898 238.261 223.902 237.716V229.182ZM236.173 233.58L234.298 233.784C234.245 233.595 234.152 233.417 234.02 233.25C233.891 233.083 233.717 232.949 233.497 232.847C233.277 232.744 233.009 232.693 232.69 232.693C232.262 232.693 231.902 232.786 231.611 232.972C231.323 233.157 231.181 233.398 231.185 233.693C231.181 233.947 231.274 234.153 231.463 234.312C231.656 234.472 231.974 234.602 232.418 234.705L233.906 235.023C234.732 235.201 235.346 235.483 235.747 235.869C236.152 236.256 236.357 236.761 236.361 237.386C236.357 237.936 236.196 238.42 235.878 238.841C235.563 239.258 235.126 239.583 234.565 239.818C234.005 240.053 233.361 240.17 232.634 240.17C231.565 240.17 230.705 239.947 230.054 239.5C229.402 239.049 229.014 238.422 228.889 237.619L230.895 237.426C230.986 237.82 231.179 238.117 231.474 238.318C231.77 238.519 232.154 238.619 232.628 238.619C233.116 238.619 233.509 238.519 233.804 238.318C234.103 238.117 234.253 237.869 234.253 237.574C234.253 237.324 234.156 237.117 233.963 236.955C233.774 236.792 233.478 236.667 233.077 236.58L231.588 236.267C230.751 236.093 230.132 235.799 229.73 235.386C229.329 234.97 229.13 234.443 229.134 233.807C229.13 233.269 229.276 232.803 229.571 232.409C229.87 232.011 230.285 231.705 230.815 231.489C231.349 231.269 231.965 231.159 232.662 231.159C233.685 231.159 234.49 231.377 235.077 231.812C235.668 232.248 236.033 232.837 236.173 233.58Z" fill="#3D3D3D"/>
<g clip-path="url(#clip2_2836_23090)">
<path d="M267.99 244.611C266.772 244.991 265.475 245.193 264.131 245.193C256.964 245.193 251.152 239.384 251.152 232.214C251.152 225.045 256.964 219.239 264.131 219.239C271.297 219.239 277.11 225.048 277.11 232.218C277.11 236.746 274.789 240.735 271.274 243.055" stroke="#052161" stroke-width="1.98607" stroke-linecap="round" stroke-linejoin="round"/>
<path d="M271.27 243.055V248.758L264.799 245.193" stroke="#052161" stroke-width="1.98607" stroke-linecap="round" stroke-linejoin="round"/>
<path d="M281.945 225.991H294.845" stroke="#1659F3" stroke-width="1.98607" stroke-linecap="round"/>
<path d="M281.945 233.224H294.845" stroke="#1659F3" stroke-width="1.98607" stroke-linecap="round"/>
<path d="M281.945 240.46H294.845" stroke="#1659F3" stroke-width="1.98607" stroke-linecap="round"/>
</g>
<defs>
<clipPath id="clip0_2836_23090">
<rect width="48" height="48" fill="white" transform="translate(249 50)"/>
</clipPath>
<clipPath id="clip1_2836_23090">
<rect width="48" height="48" fill="white" transform="translate(249 130)"/>
</clipPath>
<clipPath id="clip2_2836_23090">
<rect width="48" height="48" fill="white" transform="translate(249 210)"/>
</clipPath>
</defs>
</svg>
