<?xml version="1.0" encoding="UTF-8"?>
<svg id="Layer_1" xmlns="http://www.w3.org/2000/svg" version="1.1" viewBox="0 0 229.78 88">
  <!-- Generator: Adobe Illustrator 30.0.0, SVG Export Plug-In . SVG Version: 2.1.1 Build 123)  -->
  <defs>
    <style>
      .st0 {
        fill: none;
      }

      .st1 {
        fill: #43474b;
      }

      .st2 {
        fill: #bed63a;
      }
    </style>
  </defs>
  <rect class="st0" x="-43" y="-34.96" width="315.87" height="157.96"/>
  <path id="Chart" class="st2" d="M221.86,53.07v3.01c0,2.21-1.8,4.01-4,4.01s-4.01-1.8-4.01-4.01v-3.01c0-2.21,1.8-4,4.01-4s4,1.8,4,4ZM205.39,36.74c-2.21,0-4.01,1.8-4.01,4.01v15.31c0,2.21,1.8,4,4.01,4s4.01-1.8,4.01-4v-15.31c0-2.21-1.8-4.01-4.01-4.01ZM192.95,23.87c-2.21,0-4.01,1.8-4.01,4.01v28.2c0,2.21,1.8,4.01,4.01,4.01s4.01-1.8,4.01-4.01v-28.2c0-2.21-1.8-4.01-4.01-4.01Z"/>
  <path id="MTM" class="st1" d="M172.89,59.98c-2.39-.47-4.03-2.7-4.03-5.14v-25.43l-15.56,22.16c-.7,1-1.84,1.59-3.06,1.59h0c-1.22,0-2.36-.59-3.06-1.59l-15.56-22.16v25.43c0,2.43-1.64,4.67-4.03,5.14-3.21.63-6.04-1.83-6.04-4.94V14.58c0-2.34,1.4-4.56,3.63-5.26,2.25-.72,4.61.15,5.89,1.98l19.17,27.29,19.04-27.11c.85-1.21,2.11-2.12,3.57-2.35,3.26-.52,6.09,2,6.09,5.17v40.73c0,3.1-2.83,5.56-6.04,4.94h-.01ZM98.55,55.1V19.2h14.12c2.78,0,5.03-2.26,5.03-5.04s-2.26-5.03-5.03-5.03h-38.31c-2.78,0-5.04,2.26-5.04,5.03s2.26,5.04,5.04,5.04h14.12v35.9c0,2.78,2.26,5.03,5.04,5.03s5.03-2.26,5.03-5.03h0ZM65.39,55.05V14.32c0-3.17-2.83-5.69-6.09-5.17-1.46.23-2.72,1.14-3.57,2.35l-19.03,27.1L17.53,11.31c-1.29-1.83-3.64-2.69-5.89-1.98-2.23.71-3.63,2.92-3.63,5.26v40.46c0,3.1,2.82,5.56,6.04,4.94,2.39-.46,4.03-2.7,4.03-5.14v-25.43l15.56,22.16c.7,1,1.84,1.59,3.06,1.59h0c1.22,0,2.36-.59,3.06-1.59l15.56-22.16v25.43c0,2.44,1.64,4.67,4.03,5.14,3.21.63,6.04-1.83,6.04-4.94h0Z"/>
  <path id="Tagline" class="st1" d="M7.91,78.91v-6.9h1.41l2,2.86,2-2.86h1.4v6.9h-1.4v-4.72l-1.59,2.22h-.79l-1.62-2.22v4.72h-1.42,0ZM18.78,78.91v-6.9h5.06v1.27h-3.65v1.33h2.94v1.25h-2.94v1.77h3.75v1.27h-5.17,0ZM27.63,78.91v-6.9h2.58c1.11,0,2.03.33,2.73.97.7.64,1.05,1.47,1.05,2.48s-.35,1.85-1.05,2.49c-.7.64-1.62.96-2.73.96h-2.58ZM29.05,77.64h1.04c1.54,0,2.44-.81,2.44-2.18s-.91-2.18-2.44-2.18h-1.04v4.36ZM37.87,78.91v-6.9h1.41v6.9h-1.41ZM42.79,78.91l2.96-6.94h1.36l2.96,6.94h-1.51l-.68-1.6h-2.92l-.68,1.6h-1.49ZM45.4,76.14h2.02l-1-2.39-1.02,2.39ZM57.63,72.01h5.78v1.27h-2.19v5.63h-1.42v-5.63h-2.18v-1.27h.01ZM67.01,78.91v-6.9h5.06v1.27h-3.65v1.33h2.94v1.25h-2.94v1.77h3.75v1.27h-5.17.01ZM76.54,78.04c-.71-.68-1.06-1.54-1.06-2.58s.35-1.91,1.05-2.58c.71-.67,1.61-1,2.68-1,.68,0,1.28.15,1.82.43v1.43c-.53-.36-1.13-.53-1.81-.53s-1.2.22-1.65.64c-.43.42-.65.96-.65,1.62s.23,1.2.67,1.63c.44.42,1.01.63,1.68.63.75,0,1.38-.2,1.89-.6v1.43c-.56.33-1.21.5-1.96.5-1.07,0-1.96-.33-2.67-1v-.02ZM84.93,78.91v-6.9h1.42v2.58h3.11v-2.58h1.41v6.9h-1.41v-3.03h-3.11v3.03h-1.42ZM94.93,78.91v-6.9h1.21l3.48,4.41v-4.41h1.38v6.9h-1.17l-3.51-4.43v4.43h-1.39ZM105.85,72.92c.68-.7,1.54-1.04,2.56-1.04s1.87.35,2.55,1.04c.68.69,1.02,1.54,1.02,2.54s-.34,1.84-1.02,2.54c-.68.7-1.53,1.04-2.55,1.04s-1.88-.35-2.56-1.04c-.68-.7-1.02-1.55-1.02-2.54s.33-1.85,1.02-2.54ZM108.41,77.72c.61,0,1.11-.22,1.52-.64.4-.42.61-.97.61-1.62s-.21-1.19-.61-1.62c-.4-.42-.91-.64-1.52-.64s-1.12.22-1.53.64c-.4.42-.6.97-.6,1.62s.2,1.19.6,1.62c.4.42.92.64,1.53.64ZM115.81,78.91v-6.9h1.42v5.63h3.5v1.27s-4.92,0-4.92,0ZM124.61,72.92c.68-.7,1.54-1.04,2.56-1.04s1.87.35,2.55,1.04c.68.69,1.03,1.54,1.03,2.54s-.34,1.84-1.03,2.54c-.68.7-1.53,1.04-2.55,1.04s-1.88-.35-2.56-1.04c-.68-.7-1.01-1.55-1.01-2.54s.33-1.85,1.01-2.54ZM127.17,77.72c.61,0,1.11-.22,1.52-.64.4-.42.61-.97.61-1.62s-.21-1.19-.61-1.62c-.4-.42-.91-.64-1.52-.64s-1.12.22-1.53.64c-.4.42-.6.97-.6,1.62s.2,1.19.6,1.62c.4.42.92.64,1.53.64ZM135.39,78.04c-.7-.68-1.06-1.54-1.06-2.58s.36-1.91,1.06-2.58,1.6-1,2.67-1c.8,0,1.49.18,2.07.52v1.4c-.64-.39-1.29-.59-1.97-.59s-1.27.21-1.71.63c-.44.41-.66.97-.66,1.66s.22,1.23.64,1.64c.42.4.96.61,1.59.61s1.06-.15,1.39-.45v-2.37h1.42v3.04c-.29.31-.68.57-1.18.78s-1.04.32-1.63.32c-1.04,0-1.92-.33-2.62-1v-.03ZM146.64,78.91v-3.09l-2.67-3.8h1.67l1.71,2.45,1.72-2.45h1.63l-2.66,3.77v3.12h-1.41,0ZM159.14,78.91v-6.9h1.41l2,2.86,2-2.86h1.4v6.9h-1.4v-4.72l-1.59,2.22h-.79l-1.62-2.22v4.72h-1.42,0ZM170.79,72.92c.68-.7,1.54-1.04,2.56-1.04s1.87.35,2.55,1.04c.68.69,1.03,1.54,1.03,2.54s-.34,1.84-1.03,2.54c-.68.7-1.53,1.04-2.55,1.04s-1.88-.35-2.56-1.04c-.68-.7-1.01-1.55-1.01-2.54s.33-1.85,1.01-2.54ZM173.35,77.72c.61,0,1.11-.22,1.52-.64.4-.42.61-.97.61-1.62s-.21-1.19-.61-1.62c-.4-.42-.91-.64-1.52-.64s-1.12.22-1.53.64c-.4.42-.6.97-.6,1.62s.2,1.19.6,1.62c.4.42.92.64,1.53.64ZM180.75,78.91v-6.9h1.21l3.48,4.41v-4.41h1.38v6.9h-1.17l-3.51-4.43v4.43h-1.39ZM190.94,78.91v-6.9h1.41v6.9h-1.41ZM196,72.01h5.78v1.27h-2.19v5.63h-1.42v-5.63h-2.18v-1.27h0ZM205.66,72.92c.68-.7,1.54-1.04,2.56-1.04s1.87.35,2.55,1.04c.68.69,1.03,1.54,1.03,2.54s-.34,1.84-1.03,2.54c-.68.7-1.53,1.04-2.55,1.04s-1.88-.35-2.56-1.04c-.68-.7-1.01-1.55-1.01-2.54s.33-1.85,1.01-2.54ZM208.22,77.72c.61,0,1.11-.22,1.52-.64.4-.42.61-.97.61-1.62s-.21-1.19-.61-1.62c-.4-.42-.91-.64-1.52-.64s-1.12.22-1.53.64c-.4.42-.6.97-.6,1.62s.2,1.19.6,1.62c.4.42.92.64,1.53.64ZM215.62,78.91v-6.9h3.19c.73,0,1.31.19,1.73.57s.64.87.64,1.47c0,.92-.53,1.64-1.43,1.91l2.13,2.95h-1.64l-2.01-2.79h-1.19v2.79h-1.42ZM217.04,74.93h1.69c.64,0,1.03-.3,1.03-.84s-.38-.84-1.03-.84h-1.69v1.67h0Z"/>
</svg>