<svg width="297" height="258" viewBox="0 0 297 258" fill="none" xmlns="http://www.w3.org/2000/svg">
<path d="M1.27841 15V3.36364H3.03409V8.42045H8.83523V3.36364H10.5966V15H8.83523V9.92614H3.03409V15H1.27841ZM24.0614 9.18182C24.0614 10.4242 23.8341 11.4924 23.3795 12.3864C22.925 13.2765 22.3019 13.9621 21.5102 14.4432C20.7223 14.9205 19.8265 15.1591 18.8227 15.1591C17.8152 15.1591 16.9155 14.9205 16.1239 14.4432C15.336 13.9621 14.7148 13.2746 14.2602 12.3807C13.8057 11.4867 13.5784 10.4205 13.5784 9.18182C13.5784 7.93939 13.8057 6.87311 14.2602 5.98295C14.7148 5.08901 15.336 4.40341 16.1239 3.92614C16.9155 3.44508 17.8152 3.20455 18.8227 3.20455C19.8265 3.20455 20.7223 3.44508 21.5102 3.92614C22.3019 4.40341 22.925 5.08901 23.3795 5.98295C23.8341 6.87311 24.0614 7.93939 24.0614 9.18182ZM22.3227 9.18182C22.3227 8.23485 22.1693 7.4375 21.8625 6.78977C21.5595 6.13826 21.1428 5.64583 20.6125 5.3125C20.086 4.97538 19.4894 4.80682 18.8227 4.80682C18.1523 4.80682 17.5538 4.97538 17.0273 5.3125C16.5008 5.64583 16.0841 6.13826 15.7773 6.78977C15.4742 7.4375 15.3227 8.23485 15.3227 9.18182C15.3227 10.1288 15.4742 10.928 15.7773 11.5795C16.0841 12.2273 16.5008 12.7197 17.0273 13.0568C17.5538 13.3902 18.1523 13.5568 18.8227 13.5568C19.4894 13.5568 20.086 13.3902 20.6125 13.0568C21.1428 12.7197 21.5595 12.2273 21.8625 11.5795C22.1693 10.928 22.3227 10.1288 22.3227 9.18182ZM29.1881 15L25.9608 3.36364H27.8074L30.0744 12.375H30.1824L32.5403 3.36364H34.3699L36.7278 12.3807H36.8358L39.0972 3.36364H40.9494L37.7165 15H35.9494L33.5006 6.28409H33.4097L30.9608 15H29.1881ZM50.6631 15L47.4358 3.36364H49.2824L51.5494 12.375H51.6574L54.0153 3.36364H55.8449L58.2028 12.3807H58.3108L60.5722 3.36364H62.4244L59.1915 15H57.4244L54.9756 6.28409H54.8847L52.4358 15H50.6631ZM64.8253 15V3.36364H72.1207V4.875H66.581V8.42045H71.7401V9.92614H66.581V13.4886H72.1889V15H64.8253ZM86.6469 6.42045C86.5863 5.88258 86.3363 5.46591 85.8969 5.17045C85.4575 4.87121 84.9044 4.72159 84.2378 4.72159C83.7605 4.72159 83.3476 4.79735 82.9991 4.94886C82.6507 5.09659 82.3798 5.30114 82.1866 5.5625C81.9973 5.82008 81.9026 6.11364 81.9026 6.44318C81.9026 6.7197 81.9669 6.95833 82.0957 7.15909C82.2283 7.35985 82.4007 7.52841 82.6128 7.66477C82.8287 7.79735 83.0598 7.90909 83.306 8C83.5522 8.08712 83.7889 8.15909 84.0162 8.21591L85.1526 8.51136C85.5238 8.60227 85.9044 8.72538 86.2946 8.88068C86.6848 9.03598 87.0465 9.24053 87.3798 9.49432C87.7132 9.74811 87.9821 10.0625 88.1866 10.4375C88.395 10.8125 88.4991 11.2614 88.4991 11.7841C88.4991 12.4432 88.3287 13.0284 87.9878 13.5398C87.6507 14.0511 87.1601 14.4545 86.5162 14.75C85.876 15.0455 85.1014 15.1932 84.1923 15.1932C83.3211 15.1932 82.5673 15.0549 81.931 14.7784C81.2946 14.5019 80.7965 14.1098 80.4366 13.6023C80.0768 13.0909 79.8779 12.4848 79.8401 11.7841H81.6014C81.6355 12.2045 81.7719 12.5549 82.0105 12.8352C82.2529 13.1117 82.5616 13.3182 82.9366 13.4545C83.3154 13.5871 83.7302 13.6534 84.181 13.6534C84.6772 13.6534 85.1185 13.5758 85.5048 13.4205C85.895 13.2614 86.2018 13.0417 86.4253 12.7614C86.6488 12.4773 86.7605 12.1458 86.7605 11.767C86.7605 11.4223 86.662 11.1402 86.4651 10.9205C86.2719 10.7008 86.0086 10.5189 85.6753 10.375C85.3457 10.2311 84.9726 10.1042 84.556 9.99432L83.181 9.61932C82.2491 9.36553 81.5105 8.99242 80.9651 8.5C80.4234 8.00758 80.1526 7.35606 80.1526 6.54545C80.1526 5.875 80.3344 5.28977 80.698 4.78977C81.0616 4.28977 81.5541 3.90151 82.1753 3.625C82.7965 3.3447 83.4973 3.20455 84.2776 3.20455C85.0654 3.20455 85.7605 3.3428 86.3628 3.61932C86.9688 3.89583 87.4461 4.27652 87.7946 4.76136C88.1431 5.24242 88.3249 5.79545 88.3401 6.42045H86.6469ZM101.505 9.18182C101.505 10.4242 101.278 11.4924 100.823 12.3864C100.369 13.2765 99.7456 13.9621 98.954 14.4432C98.1661 14.9205 97.2703 15.1591 96.2665 15.1591C95.2589 15.1591 94.3593 14.9205 93.5676 14.4432C92.7797 13.9621 92.1585 13.2746 91.704 12.3807C91.2494 11.4867 91.0222 10.4205 91.0222 9.18182C91.0222 7.93939 91.2494 6.87311 91.704 5.98295C92.1585 5.08901 92.7797 4.40341 93.5676 3.92614C94.3593 3.44508 95.2589 3.20455 96.2665 3.20455C97.2703 3.20455 98.1661 3.44508 98.954 3.92614C99.7456 4.40341 100.369 5.08901 100.823 5.98295C101.278 6.87311 101.505 7.93939 101.505 9.18182ZM99.7665 9.18182C99.7665 8.23485 99.6131 7.4375 99.3063 6.78977C99.0032 6.13826 98.5866 5.64583 98.0563 5.3125C97.5297 4.97538 96.9331 4.80682 96.2665 4.80682C95.596 4.80682 94.9975 4.97538 94.471 5.3125C93.9445 5.64583 93.5278 6.13826 93.221 6.78977C92.918 7.4375 92.7665 8.23485 92.7665 9.18182C92.7665 10.1288 92.918 10.928 93.221 11.5795C93.5278 12.2273 93.9445 12.7197 94.471 13.0568C94.9975 13.3902 95.596 13.5568 96.2665 13.5568C96.9331 13.5568 97.5297 13.3902 98.0563 13.0568C98.5866 12.7197 99.0032 12.2273 99.3063 11.5795C99.6131 10.928 99.7665 10.1288 99.7665 9.18182ZM104.494 15V3.36364H106.25V13.4886H111.522V15H104.494ZM114.202 3.36364L117.44 12.8409H117.571L120.81 3.36364H122.707L118.52 15H116.491L112.304 3.36364H114.202ZM125.188 15V3.36364H132.483V4.875H126.943V8.42045H132.103V9.92614H126.943V13.4886H132.551V15H125.188ZM140.089 4.875V3.36364H149.095V4.875H145.464V15H143.714V4.875H140.089ZM151.885 15V3.36364H153.64V8.42045H159.441V3.36364H161.203V15H159.441V9.92614H153.64V15H151.885ZM164.56 15V3.36364H171.855V4.875H166.315V8.42045H171.474V9.92614H166.315V13.4886H171.923V15H164.56ZM175 3.36364H177.131L180.836 12.4091H180.972L184.676 3.36364H186.807V15H185.137V6.57955H185.029L181.597 14.983H180.211L176.779 6.57386H176.671V15H175V3.36364Z" fill="black"/>
<g clip-path="url(#clip0_2836_23096)">
<path d="M25.0776 73.9984C26.1599 73.9984 27.0372 73.1211 27.0372 72.0388C27.0372 70.9566 26.1599 70.0792 25.0776 70.0792C23.9954 70.0792 23.118 70.9566 23.118 72.0388C23.118 73.1211 23.9954 73.9984 25.0776 73.9984Z" fill="#1659F3"/>
<path d="M19.5926 68.4606C20.6749 68.4606 21.5522 67.5832 21.5522 66.501C21.5522 65.4187 20.6749 64.5414 19.5926 64.5414C18.5104 64.5414 17.6331 65.4187 17.6331 66.501C17.6331 67.5832 18.5104 68.4606 19.5926 68.4606Z" fill="#1659F3"/>
<path d="M19.5365 73.9786C20.6187 73.9786 21.4961 73.1013 21.4961 72.019C21.4961 70.9368 20.6187 70.0594 19.5365 70.0594C18.4542 70.0594 17.5769 70.9368 17.5769 72.019C17.5769 73.1013 18.4542 73.9786 19.5365 73.9786Z" fill="#1659F3"/>
<path d="M29.5198 59.6028V64.2436C29.5198 64.803 29.9733 65.2565 30.5327 65.2565H34.8424" stroke="#052161" stroke-width="0.993035"/>
<path d="M34.7001 84.4253C34.7001 86.62 32.9226 88.3975 30.728 88.3975H17.1201C14.9255 88.3975 13.1479 86.62 13.1479 84.4253V63.5749C13.1479 61.3803 14.9255 59.6028 17.1201 59.6028H29.3741L34.6968 64.9255L34.8391 72.7108L23.9158 83.5184L18.9969 78.5267" stroke="#052161" stroke-width="1.98607" stroke-linecap="round" stroke-linejoin="round"/>
</g>
<path d="M68.483 68.3636H70.5909V75.9659C70.5909 76.7992 70.3939 77.5322 70 78.1648C69.6098 78.7973 69.0606 79.2917 68.3523 79.6477C67.6439 80 66.8163 80.1761 65.8693 80.1761C64.9186 80.1761 64.089 80 63.3807 79.6477C62.6723 79.2917 62.1231 78.7973 61.733 78.1648C61.3428 77.5322 61.1477 76.7992 61.1477 75.9659V68.3636H63.2557V75.7898C63.2557 76.2746 63.3617 76.7064 63.5739 77.0852C63.7898 77.464 64.0928 77.7614 64.483 77.9773C64.8731 78.1894 65.3352 78.2955 65.8693 78.2955C66.4034 78.2955 66.8655 78.1894 67.2557 77.9773C67.6496 77.7614 67.9527 77.464 68.1648 77.0852C68.3769 76.7064 68.483 76.2746 68.483 75.7898V68.3636ZM74.848 74.8864V80H72.7912V71.2727H74.7571V72.7557H74.8594C75.0601 72.267 75.3802 71.8788 75.8196 71.5909C76.2628 71.303 76.8101 71.1591 77.4616 71.1591C78.0639 71.1591 78.5885 71.2879 79.0355 71.5455C79.4863 71.803 79.8348 72.1761 80.081 72.6648C80.331 73.1534 80.4541 73.7462 80.4503 74.4432V80H78.3935V74.7614C78.3935 74.178 78.242 73.7216 77.9389 73.392C77.6397 73.0625 77.2249 72.8977 76.6946 72.8977C76.3348 72.8977 76.0147 72.9773 75.7344 73.1364C75.4579 73.2917 75.2401 73.517 75.081 73.8125C74.9257 74.108 74.848 74.4659 74.848 74.8864ZM82.5412 80V71.2727H84.5355V72.7273H84.6264C84.7855 72.2235 85.0582 71.8352 85.4446 71.5625C85.8348 71.286 86.2798 71.1477 86.7798 71.1477C86.8935 71.1477 87.0204 71.1534 87.1605 71.1648C87.3045 71.1723 87.4238 71.1856 87.5185 71.2045V73.0966C87.4313 73.0663 87.2931 73.0398 87.1037 73.017C86.9181 72.9905 86.7382 72.9773 86.5639 72.9773C86.1889 72.9773 85.8518 73.0587 85.5526 73.2216C85.2571 73.3807 85.0241 73.6023 84.8537 73.8864C84.6832 74.1705 84.598 74.4981 84.598 74.8693V80H82.5412ZM88.8849 80V71.2727H90.9418V80H88.8849ZM89.919 70.0341C89.5933 70.0341 89.313 69.9261 89.0781 69.7102C88.8433 69.4905 88.7259 69.2273 88.7259 68.9205C88.7259 68.6098 88.8433 68.3466 89.0781 68.1307C89.313 67.911 89.5933 67.8011 89.919 67.8011C90.2486 67.8011 90.5289 67.911 90.7599 68.1307C90.9948 68.3466 91.1122 68.6098 91.1122 68.9205C91.1122 69.2273 90.9948 69.4905 90.7599 69.7102C90.5289 69.9261 90.2486 70.0341 89.919 70.0341ZM100.852 71.2727L97.7443 80H95.4716L92.3636 71.2727H94.5568L96.5625 77.7557H96.6534L98.6648 71.2727H100.852ZM104.537 80.1761C103.984 80.1761 103.486 80.0777 103.043 79.8807C102.603 79.6799 102.255 79.3845 101.997 78.9943C101.743 78.6042 101.616 78.1231 101.616 77.5511C101.616 77.0587 101.707 76.6515 101.889 76.3295C102.071 76.0076 102.319 75.75 102.634 75.5568C102.948 75.3636 103.302 75.2178 103.696 75.1193C104.094 75.017 104.505 74.9432 104.929 74.8977C105.44 74.8447 105.855 74.7973 106.173 74.7557C106.491 74.7102 106.723 74.642 106.866 74.5511C107.014 74.4564 107.088 74.3106 107.088 74.1136V74.0795C107.088 73.6515 106.961 73.3201 106.707 73.0852C106.454 72.8504 106.088 72.733 105.611 72.733C105.107 72.733 104.707 72.8428 104.412 73.0625C104.12 73.2822 103.923 73.5417 103.821 73.8409L101.901 73.5682C102.052 73.0379 102.302 72.5947 102.651 72.2386C102.999 71.8788 103.425 71.6098 103.929 71.4318C104.433 71.25 104.99 71.1591 105.599 71.1591C106.02 71.1591 106.438 71.2083 106.855 71.3068C107.272 71.4053 107.652 71.5682 107.997 71.7955C108.342 72.0189 108.618 72.3239 108.827 72.7102C109.039 73.0966 109.145 73.5795 109.145 74.1591V80H107.168V78.8011H107.099C106.974 79.0436 106.798 79.2708 106.571 79.483C106.348 79.6913 106.065 79.8598 105.724 79.9886C105.387 80.1136 104.991 80.1761 104.537 80.1761ZM105.071 78.6648C105.484 78.6648 105.842 78.5833 106.145 78.4205C106.448 78.2538 106.681 78.0341 106.844 77.7614C107.01 77.4886 107.094 77.1913 107.094 76.8693V75.8409C107.029 75.8939 106.92 75.9432 106.764 75.9886C106.613 76.0341 106.442 76.0739 106.253 76.108C106.063 76.142 105.876 76.1723 105.69 76.1989C105.505 76.2254 105.344 76.2481 105.207 76.267C104.901 76.3087 104.626 76.3769 104.384 76.4716C104.141 76.5663 103.95 76.6989 103.81 76.8693C103.67 77.036 103.599 77.2519 103.599 77.517C103.599 77.8958 103.738 78.1818 104.014 78.375C104.291 78.5682 104.643 78.6648 105.071 78.6648ZM113.27 68.3636V80H111.213V68.3636H113.27ZM119.249 80.1705C118.374 80.1705 117.618 79.9886 116.982 79.625C116.349 79.2576 115.862 78.7386 115.521 78.0682C115.18 77.3939 115.01 76.6004 115.01 75.6875C115.01 74.7898 115.18 74.0019 115.521 73.3239C115.866 72.642 116.347 72.1117 116.964 71.733C117.582 71.3504 118.307 71.1591 119.141 71.1591C119.679 71.1591 120.186 71.2462 120.663 71.4205C121.144 71.5909 121.569 71.8561 121.936 72.2159C122.307 72.5758 122.599 73.0341 122.811 73.5909C123.023 74.1439 123.129 74.803 123.129 75.5682V76.1989H115.976V74.8125H121.158C121.154 74.4186 121.069 74.0682 120.902 73.7614C120.735 73.4508 120.502 73.2064 120.203 73.0284C119.908 72.8504 119.563 72.7614 119.169 72.7614C118.749 72.7614 118.379 72.8636 118.061 73.0682C117.743 73.2689 117.495 73.5341 117.317 73.8636C117.143 74.1894 117.054 74.5473 117.05 74.9375V76.1477C117.05 76.6553 117.143 77.0909 117.328 77.4545C117.514 77.8144 117.773 78.0909 118.107 78.2841C118.44 78.4735 118.83 78.5682 119.277 78.5682C119.576 78.5682 119.847 78.5265 120.089 78.4432C120.332 78.3561 120.542 78.2292 120.72 78.0625C120.898 77.8958 121.033 77.6894 121.124 77.4432L123.044 77.6591C122.923 78.1667 122.692 78.6098 122.351 78.9886C122.014 79.3636 121.582 79.6553 121.055 79.8636C120.529 80.0682 119.927 80.1705 119.249 80.1705ZM128.108 80.1534C127.422 80.1534 126.809 79.9773 126.267 79.625C125.725 79.2727 125.297 78.7614 124.983 78.0909C124.669 77.4205 124.511 76.6061 124.511 75.6477C124.511 74.678 124.67 73.8598 124.989 73.1932C125.311 72.5227 125.744 72.017 126.29 71.6761C126.835 71.3314 127.443 71.1591 128.114 71.1591C128.625 71.1591 129.045 71.2462 129.375 71.4205C129.705 71.5909 129.966 71.7973 130.159 72.0398C130.352 72.2784 130.502 72.5038 130.608 72.7159H130.693V68.3636H132.756V80H130.733V78.625H130.608C130.502 78.8371 130.348 79.0625 130.148 79.3011C129.947 79.536 129.682 79.7367 129.352 79.9034C129.023 80.0701 128.608 80.1534 128.108 80.1534ZM128.682 78.4659C129.117 78.4659 129.489 78.3485 129.795 78.1136C130.102 77.875 130.335 77.5436 130.494 77.1193C130.653 76.6951 130.733 76.2008 130.733 75.6364C130.733 75.072 130.653 74.5814 130.494 74.1648C130.339 73.7481 130.108 73.4242 129.801 73.1932C129.498 72.9621 129.125 72.8466 128.682 72.8466C128.223 72.8466 127.841 72.9659 127.534 73.2045C127.227 73.4432 126.996 73.7727 126.841 74.1932C126.686 74.6136 126.608 75.0947 126.608 75.6364C126.608 76.1818 126.686 76.6686 126.841 77.0966C127 77.5208 127.233 77.8561 127.54 78.1023C127.85 78.3447 128.231 78.4659 128.682 78.4659ZM142.95 80H139.007V68.3636H143.03C144.185 68.3636 145.178 68.5966 146.007 69.0625C146.84 69.5246 147.481 70.1894 147.928 71.0568C148.375 71.9242 148.598 72.9621 148.598 74.1705C148.598 75.3826 148.373 76.4242 147.922 77.2955C147.475 78.1667 146.829 78.8352 145.984 79.3011C145.143 79.767 144.132 80 142.95 80ZM141.115 78.1761H142.848C143.659 78.1761 144.335 78.0284 144.876 77.733C145.418 77.4337 145.825 76.9886 146.098 76.3977C146.371 75.803 146.507 75.0606 146.507 74.1705C146.507 73.2803 146.371 72.5417 146.098 71.9545C145.825 71.3636 145.422 70.9223 144.888 70.6307C144.357 70.3352 143.698 70.1875 142.911 70.1875H141.115V78.1761ZM153.021 80.1761C152.468 80.1761 151.97 80.0777 151.527 79.8807C151.088 79.6799 150.739 79.3845 150.482 78.9943C150.228 78.6042 150.101 78.1231 150.101 77.5511C150.101 77.0587 150.192 76.6515 150.374 76.3295C150.555 76.0076 150.804 75.75 151.118 75.5568C151.432 75.3636 151.786 75.2178 152.18 75.1193C152.578 75.017 152.989 74.9432 153.413 74.8977C153.925 74.8447 154.339 74.7973 154.658 74.7557C154.976 74.7102 155.207 74.642 155.351 74.5511C155.499 74.4564 155.572 74.3106 155.572 74.1136V74.0795C155.572 73.6515 155.446 73.3201 155.192 73.0852C154.938 72.8504 154.572 72.733 154.095 72.733C153.591 72.733 153.192 72.8428 152.896 73.0625C152.605 73.2822 152.408 73.5417 152.305 73.8409L150.385 73.5682C150.536 73.0379 150.786 72.5947 151.135 72.2386C151.483 71.8788 151.91 71.6098 152.413 71.4318C152.917 71.25 153.474 71.1591 154.084 71.1591C154.504 71.1591 154.923 71.2083 155.339 71.3068C155.756 71.4053 156.137 71.5682 156.482 71.7955C156.826 72.0189 157.103 72.3239 157.311 72.7102C157.523 73.0966 157.629 73.5795 157.629 74.1591V80H155.652V78.8011H155.584C155.459 79.0436 155.283 79.2708 155.055 79.483C154.832 79.6913 154.55 79.8598 154.209 79.9886C153.872 80.1136 153.476 80.1761 153.021 80.1761ZM153.555 78.6648C153.968 78.6648 154.326 78.5833 154.629 78.4205C154.932 78.2538 155.165 78.0341 155.328 77.7614C155.495 77.4886 155.578 77.1913 155.578 76.8693V75.8409C155.514 75.8939 155.404 75.9432 155.249 75.9886C155.097 76.0341 154.927 76.0739 154.737 76.108C154.548 76.142 154.36 76.1723 154.175 76.1989C153.989 76.2254 153.828 76.2481 153.692 76.267C153.385 76.3087 153.11 76.3769 152.868 76.4716C152.625 76.5663 152.434 76.6989 152.294 76.8693C152.154 77.036 152.084 77.2519 152.084 77.517C152.084 77.8958 152.222 78.1818 152.499 78.375C152.775 78.5682 153.127 78.6648 153.555 78.6648ZM164.055 71.2727V72.8636H159.038V71.2727H164.055ZM160.277 69.1818H162.334V77.375C162.334 77.6515 162.375 77.8636 162.459 78.0114C162.546 78.1553 162.66 78.2538 162.8 78.3068C162.94 78.3598 163.095 78.3864 163.266 78.3864C163.394 78.3864 163.512 78.3769 163.618 78.358C163.728 78.339 163.811 78.322 163.868 78.3068L164.214 79.9148C164.105 79.9527 163.947 79.9943 163.743 80.0398C163.542 80.0852 163.296 80.1117 163.004 80.1193C162.489 80.1345 162.025 80.0568 161.612 79.8864C161.199 79.7121 160.872 79.4432 160.629 79.0795C160.391 78.7159 160.273 78.2614 160.277 77.7159V69.1818ZM168.287 80.1761C167.734 80.1761 167.236 80.0777 166.793 79.8807C166.353 79.6799 166.005 79.3845 165.747 78.9943C165.493 78.6042 165.366 78.1231 165.366 77.5511C165.366 77.0587 165.457 76.6515 165.639 76.3295C165.821 76.0076 166.069 75.75 166.384 75.5568C166.698 75.3636 167.052 75.2178 167.446 75.1193C167.844 75.017 168.255 74.9432 168.679 74.8977C169.19 74.8447 169.605 74.7973 169.923 74.7557C170.241 74.7102 170.473 74.642 170.616 74.5511C170.764 74.4564 170.838 74.3106 170.838 74.1136V74.0795C170.838 73.6515 170.711 73.3201 170.457 73.0852C170.204 72.8504 169.838 72.733 169.361 72.733C168.857 72.733 168.457 72.8428 168.162 73.0625C167.87 73.2822 167.673 73.5417 167.571 73.8409L165.651 73.5682C165.802 73.0379 166.052 72.5947 166.401 72.2386C166.749 71.8788 167.175 71.6098 167.679 71.4318C168.183 71.25 168.74 71.1591 169.349 71.1591C169.77 71.1591 170.188 71.2083 170.605 71.3068C171.022 71.4053 171.402 71.5682 171.747 71.7955C172.092 72.0189 172.368 72.3239 172.577 72.7102C172.789 73.0966 172.895 73.5795 172.895 74.1591V80H170.918V78.8011H170.849C170.724 79.0436 170.548 79.2708 170.321 79.483C170.098 79.6913 169.815 79.8598 169.474 79.9886C169.137 80.1136 168.741 80.1761 168.287 80.1761ZM168.821 78.6648C169.234 78.6648 169.592 78.5833 169.895 78.4205C170.198 78.2538 170.431 78.0341 170.594 77.7614C170.76 77.4886 170.844 77.1913 170.844 76.8693V75.8409C170.779 75.8939 170.67 75.9432 170.514 75.9886C170.363 76.0341 170.192 76.0739 170.003 76.108C169.813 76.142 169.626 76.1723 169.44 76.1989C169.255 76.2254 169.094 76.2481 168.957 76.267C168.651 76.3087 168.376 76.3769 168.134 76.4716C167.891 76.5663 167.7 76.6989 167.56 76.8693C167.42 77.036 167.349 77.2519 167.349 77.517C167.349 77.8958 167.488 78.1818 167.764 78.375C168.041 78.5682 168.393 78.6648 168.821 78.6648ZM183.358 76.0909H185.267L186.398 77.5568L187.205 78.5114L189.142 81H187.097L185.778 79.3295L185.216 78.5341L183.358 76.0909ZM189.42 74.1818C189.42 75.4356 189.186 76.5095 188.716 77.4034C188.25 78.2936 187.614 78.9754 186.807 79.4489C186.004 79.9223 185.093 80.1591 184.074 80.1591C183.055 80.1591 182.142 79.9223 181.335 79.4489C180.532 78.9716 179.896 78.2879 179.426 77.3977C178.96 76.5038 178.727 75.4318 178.727 74.1818C178.727 72.928 178.96 71.8561 179.426 70.9659C179.896 70.072 180.532 69.3883 181.335 68.9148C182.142 68.4413 183.055 68.2045 184.074 68.2045C185.093 68.2045 186.004 68.4413 186.807 68.9148C187.614 69.3883 188.25 70.072 188.716 70.9659C189.186 71.8561 189.42 72.928 189.42 74.1818ZM187.301 74.1818C187.301 73.2992 187.163 72.5549 186.886 71.9489C186.614 71.339 186.235 70.8788 185.75 70.5682C185.265 70.2538 184.706 70.0966 184.074 70.0966C183.441 70.0966 182.883 70.2538 182.398 70.5682C181.913 70.8788 181.532 71.339 181.256 71.9489C180.983 72.5549 180.847 73.2992 180.847 74.1818C180.847 75.0644 180.983 75.8106 181.256 76.4205C181.532 77.0265 181.913 77.4867 182.398 77.8011C182.883 78.1117 183.441 78.267 184.074 78.267C184.706 78.267 185.265 78.1117 185.75 77.8011C186.235 77.4867 186.614 77.0265 186.886 76.4205C187.163 75.8106 187.301 75.0644 187.301 74.1818ZM196.901 76.3295V71.2727H198.957V80H196.963V78.4489H196.872C196.675 78.9375 196.351 79.3371 195.901 79.6477C195.454 79.9583 194.902 80.1136 194.247 80.1136C193.675 80.1136 193.17 79.9867 192.73 79.733C192.295 79.4754 191.954 79.1023 191.707 78.6136C191.461 78.1212 191.338 77.5265 191.338 76.8295V71.2727H193.395V76.5114C193.395 77.0644 193.546 77.5038 193.849 77.8295C194.152 78.1553 194.55 78.3182 195.043 78.3182C195.346 78.3182 195.639 78.2443 195.923 78.0966C196.207 77.9489 196.44 77.7292 196.622 77.4375C196.808 77.142 196.901 76.7727 196.901 76.3295ZM203.584 80.1761C203.031 80.1761 202.533 80.0777 202.089 79.8807C201.65 79.6799 201.302 79.3845 201.044 78.9943C200.79 78.6042 200.663 78.1231 200.663 77.5511C200.663 77.0587 200.754 76.6515 200.936 76.3295C201.118 76.0076 201.366 75.75 201.68 75.5568C201.995 75.3636 202.349 75.2178 202.743 75.1193C203.141 75.017 203.552 74.9432 203.976 74.8977C204.487 74.8447 204.902 74.7973 205.22 74.7557C205.538 74.7102 205.769 74.642 205.913 74.5511C206.061 74.4564 206.135 74.3106 206.135 74.1136V74.0795C206.135 73.6515 206.008 73.3201 205.754 73.0852C205.5 72.8504 205.135 72.733 204.658 72.733C204.154 72.733 203.754 72.8428 203.459 73.0625C203.167 73.2822 202.97 73.5417 202.868 73.8409L200.947 73.5682C201.099 73.0379 201.349 72.5947 201.697 72.2386C202.046 71.8788 202.472 71.6098 202.976 71.4318C203.48 71.25 204.036 71.1591 204.646 71.1591C205.067 71.1591 205.485 71.2083 205.902 71.3068C206.319 71.4053 206.699 71.5682 207.044 71.7955C207.389 72.0189 207.665 72.3239 207.874 72.7102C208.086 73.0966 208.192 73.5795 208.192 74.1591V80H206.214V78.8011H206.146C206.021 79.0436 205.845 79.2708 205.618 79.483C205.394 79.6913 205.112 79.8598 204.771 79.9886C204.434 80.1136 204.038 80.1761 203.584 80.1761ZM204.118 78.6648C204.531 78.6648 204.889 78.5833 205.192 78.4205C205.495 78.2538 205.728 78.0341 205.891 77.7614C206.057 77.4886 206.141 77.1913 206.141 76.8693V75.8409C206.076 75.8939 205.966 75.9432 205.811 75.9886C205.66 76.0341 205.489 76.0739 205.3 76.108C205.11 76.142 204.923 76.1723 204.737 76.1989C204.552 76.2254 204.391 76.2481 204.254 76.267C203.947 76.3087 203.673 76.3769 203.43 76.4716C203.188 76.5663 202.997 76.6989 202.857 76.8693C202.716 77.036 202.646 77.2519 202.646 77.517C202.646 77.8958 202.785 78.1818 203.061 78.375C203.338 78.5682 203.69 78.6648 204.118 78.6648ZM212.317 68.3636V80H210.26V68.3636H212.317ZM214.432 80V71.2727H216.489V80H214.432ZM215.466 70.0341C215.14 70.0341 214.86 69.9261 214.625 69.7102C214.39 69.4905 214.273 69.2273 214.273 68.9205C214.273 68.6098 214.39 68.3466 214.625 68.1307C214.86 67.911 215.14 67.8011 215.466 67.8011C215.795 67.8011 216.076 67.911 216.307 68.1307C216.542 68.3466 216.659 68.6098 216.659 68.9205C216.659 69.2273 216.542 69.4905 216.307 69.7102C216.076 69.9261 215.795 70.0341 215.466 70.0341ZM222.962 71.2727V72.8636H217.945V71.2727H222.962ZM219.183 69.1818H221.24V77.375C221.24 77.6515 221.282 77.8636 221.365 78.0114C221.452 78.1553 221.566 78.2538 221.706 78.3068C221.846 78.3598 222.001 78.3864 222.172 78.3864C222.301 78.3864 222.418 78.3769 222.524 78.358C222.634 78.339 222.717 78.322 222.774 78.3068L223.121 79.9148C223.011 79.9527 222.854 79.9943 222.649 80.0398C222.448 80.0852 222.202 80.1117 221.911 80.1193C221.395 80.1345 220.931 80.0568 220.518 79.8864C220.106 79.7121 219.778 79.4432 219.536 79.0795C219.297 78.7159 219.179 78.2614 219.183 77.7159V69.1818ZM225.96 83.2727C225.68 83.2727 225.42 83.25 225.182 83.2045C224.947 83.1629 224.759 83.1136 224.619 83.0568L225.097 81.4545C225.396 81.5417 225.663 81.5833 225.898 81.5795C226.133 81.5758 226.339 81.5019 226.517 81.358C226.699 81.2178 226.852 80.983 226.977 80.6534L227.153 80.1818L223.989 71.2727H226.17L228.182 77.8636H228.273L230.29 71.2727H232.477L228.983 81.0568C228.82 81.5189 228.604 81.9148 228.335 82.2443C228.066 82.5777 227.737 82.8314 227.347 83.0057C226.96 83.1837 226.498 83.2727 225.96 83.2727Z" fill="#3D3D3D"/>
<g clip-path="url(#clip1_2836_23096)">
<path d="M16.9448 157.944C16.9448 157.944 13.9458 152.171 13.9458 146.336C13.9458 139.477 18.8613 137.802 22.7937 137.802C26.7262 137.802 31.6417 139.477 31.6417 146.336C31.6417 152.171 28.6427 157.944 28.6427 157.944" stroke="#052161" stroke-width="1.98607" stroke-linecap="round"/>
<path d="M13.5156 162.671H16.594C16.594 162.671 25.3625 162.671 25.3625 153.158C25.3625 145.948 22.9594 146.283 22.9594 146.283C22.9594 146.283 20.5562 145.945 20.5562 153.158C20.5562 162.671 29.3247 162.671 29.3247 162.671H32.0721" stroke="#1659F3" stroke-width="1.98607" stroke-linecap="round"/>
<path d="M30.364 164.753V160.4C30.364 160.076 30.7149 159.874 30.9929 160.036L34.7632 162.211C35.0445 162.373 35.0445 162.777 34.7632 162.939L30.9929 165.114C30.7116 165.276 30.364 165.074 30.364 164.75V164.753Z" fill="#1659F3"/>
<path d="M19.0699 165.008H26.5177" stroke="#052161" stroke-width="0.993035" stroke-linecap="round"/>
<path d="M19.9207 167.603H25.6703" stroke="#052161" stroke-width="0.993035" stroke-linecap="round"/>
<path d="M20.927 170.195H24.6641" stroke="#052161" stroke-width="0.993035" stroke-linecap="round"/>
</g>
<path d="M63.2557 148.364V160H61.1477V148.364H63.2557ZM67.5043 154.886V160H65.4474V151.273H67.4134V152.756H67.5156C67.7164 152.267 68.0365 151.879 68.4759 151.591C68.919 151.303 69.4664 151.159 70.1179 151.159C70.7202 151.159 71.2448 151.288 71.6918 151.545C72.1425 151.803 72.491 152.176 72.7372 152.665C72.9872 153.153 73.1103 153.746 73.1065 154.443V160H71.0497V154.761C71.0497 154.178 70.8982 153.722 70.5952 153.392C70.2959 153.062 69.8812 152.898 69.3509 152.898C68.991 152.898 68.6709 152.977 68.3906 153.136C68.1141 153.292 67.8963 153.517 67.7372 153.812C67.5819 154.108 67.5043 154.466 67.5043 154.886ZM82.0952 153.58L80.2202 153.784C80.1671 153.595 80.0743 153.417 79.9418 153.25C79.813 153.083 79.6387 152.949 79.419 152.847C79.1993 152.744 78.9304 152.693 78.6122 152.693C78.1842 152.693 77.8243 152.786 77.5327 152.972C77.2448 153.157 77.1027 153.398 77.1065 153.693C77.1027 153.947 77.1955 154.153 77.3849 154.312C77.5781 154.472 77.8963 154.602 78.3395 154.705L79.8281 155.023C80.6539 155.201 81.2675 155.483 81.669 155.869C82.0743 156.256 82.2789 156.761 82.2827 157.386C82.2789 157.936 82.1179 158.42 81.7997 158.841C81.4853 159.258 81.0478 159.583 80.4872 159.818C79.9266 160.053 79.2827 160.17 78.5554 160.17C77.4872 160.17 76.6274 159.947 75.9759 159.5C75.3243 159.049 74.9361 158.422 74.8111 157.619L76.8168 157.426C76.9077 157.82 77.1009 158.117 77.3963 158.318C77.6918 158.519 78.0762 158.619 78.5497 158.619C79.0384 158.619 79.4304 158.519 79.7259 158.318C80.0251 158.117 80.1747 157.869 80.1747 157.574C80.1747 157.324 80.0781 157.117 79.8849 156.955C79.6955 156.792 79.4001 156.667 78.9986 156.58L77.5099 156.267C76.6728 156.093 76.0535 155.799 75.652 155.386C75.2505 154.97 75.0516 154.443 75.0554 153.807C75.0516 153.269 75.1974 152.803 75.4929 152.409C75.7921 152.011 76.2069 151.705 76.7372 151.489C77.2713 151.269 77.8868 151.159 78.5838 151.159C79.6065 151.159 80.4115 151.377 80.9986 151.812C81.5895 152.248 81.955 152.837 82.0952 153.58ZM83.9787 160V151.273H86.0355V160H83.9787ZM85.0128 150.034C84.687 150.034 84.4067 149.926 84.1719 149.71C83.937 149.491 83.8196 149.227 83.8196 148.92C83.8196 148.61 83.937 148.347 84.1719 148.131C84.4067 147.911 84.687 147.801 85.0128 147.801C85.3423 147.801 85.6226 147.911 85.8537 148.131C86.0885 148.347 86.206 148.61 86.206 148.92C86.206 149.227 86.0885 149.491 85.8537 149.71C85.6226 149.926 85.3423 150.034 85.0128 150.034ZM91.946 163.455C91.2074 163.455 90.5729 163.354 90.0426 163.153C89.5123 162.956 89.0862 162.691 88.7642 162.358C88.4422 162.025 88.2188 161.655 88.0938 161.25L89.946 160.801C90.0294 160.972 90.1506 161.14 90.3097 161.307C90.4688 161.477 90.6828 161.617 90.9517 161.727C91.2244 161.841 91.5672 161.898 91.9801 161.898C92.5634 161.898 93.0464 161.756 93.429 161.472C93.8116 161.191 94.0028 160.729 94.0028 160.085V158.432H93.9006C93.7945 158.644 93.6392 158.862 93.4347 159.085C93.2339 159.309 92.9669 159.496 92.6335 159.648C92.304 159.799 91.8892 159.875 91.3892 159.875C90.7188 159.875 90.1108 159.718 89.5653 159.403C89.0237 159.085 88.5919 158.612 88.2699 157.983C87.9517 157.35 87.7926 156.559 87.7926 155.608C87.7926 154.65 87.9517 153.841 88.2699 153.182C88.5919 152.519 89.0256 152.017 89.571 151.676C90.1165 151.331 90.7244 151.159 91.3949 151.159C91.9063 151.159 92.3267 151.246 92.6562 151.42C92.9896 151.591 93.2547 151.797 93.4517 152.04C93.6487 152.278 93.7983 152.504 93.9006 152.716H94.0142V151.273H96.0426V160.142C96.0426 160.888 95.8646 161.506 95.5085 161.994C95.1525 162.483 94.6657 162.848 94.0483 163.091C93.4309 163.333 92.7301 163.455 91.946 163.455ZM91.9631 158.261C92.3987 158.261 92.7699 158.155 93.0767 157.943C93.3835 157.731 93.6165 157.426 93.7756 157.028C93.9347 156.631 94.0142 156.153 94.0142 155.597C94.0142 155.047 93.9347 154.566 93.7756 154.153C93.6203 153.741 93.3892 153.42 93.0824 153.193C92.7794 152.962 92.4063 152.847 91.9631 152.847C91.5047 152.847 91.1222 152.966 90.8153 153.205C90.5085 153.443 90.2775 153.771 90.1222 154.188C89.9669 154.6 89.8892 155.07 89.8892 155.597C89.8892 156.131 89.9669 156.598 90.1222 157C90.2813 157.398 90.5142 157.708 90.821 157.932C91.1316 158.152 91.5123 158.261 91.9631 158.261ZM100.207 154.886V160H98.1506V148.364H100.162V152.756H100.264C100.469 152.263 100.785 151.875 101.213 151.591C101.645 151.303 102.194 151.159 102.861 151.159C103.467 151.159 103.995 151.286 104.446 151.54C104.897 151.794 105.245 152.165 105.491 152.653C105.741 153.142 105.866 153.739 105.866 154.443V160H103.81V154.761C103.81 154.174 103.658 153.718 103.355 153.392C103.056 153.062 102.635 152.898 102.094 152.898C101.73 152.898 101.404 152.977 101.116 153.136C100.832 153.292 100.609 153.517 100.446 153.812C100.287 154.108 100.207 154.466 100.207 154.886ZM112.321 151.273V152.864H107.304V151.273H112.321ZM108.543 149.182H110.599V157.375C110.599 157.652 110.641 157.864 110.724 158.011C110.812 158.155 110.925 158.254 111.065 158.307C111.205 158.36 111.361 158.386 111.531 158.386C111.66 158.386 111.777 158.377 111.884 158.358C111.993 158.339 112.077 158.322 112.134 158.307L112.48 159.915C112.37 159.953 112.213 159.994 112.009 160.04C111.808 160.085 111.562 160.112 111.27 160.119C110.755 160.134 110.291 160.057 109.878 159.886C109.465 159.712 109.137 159.443 108.895 159.08C108.656 158.716 108.539 158.261 108.543 157.716V149.182ZM120.814 153.58L118.939 153.784C118.886 153.595 118.793 153.417 118.661 153.25C118.532 153.083 118.357 152.949 118.138 152.847C117.918 152.744 117.649 152.693 117.331 152.693C116.903 152.693 116.543 152.786 116.251 152.972C115.964 153.157 115.821 153.398 115.825 153.693C115.821 153.947 115.914 154.153 116.104 154.312C116.297 154.472 116.615 154.602 117.058 154.705L118.547 155.023C119.373 155.201 119.986 155.483 120.388 155.869C120.793 156.256 120.998 156.761 121.001 157.386C120.998 157.936 120.837 158.42 120.518 158.841C120.204 159.258 119.767 159.583 119.206 159.818C118.645 160.053 118.001 160.17 117.274 160.17C116.206 160.17 115.346 159.947 114.695 159.5C114.043 159.049 113.655 158.422 113.53 157.619L115.536 157.426C115.626 157.82 115.82 158.117 116.115 158.318C116.411 158.519 116.795 158.619 117.268 158.619C117.757 158.619 118.149 158.519 118.445 158.318C118.744 158.117 118.893 157.869 118.893 157.574C118.893 157.324 118.797 157.117 118.604 156.955C118.414 156.792 118.119 156.667 117.717 156.58L116.229 156.267C115.392 156.093 114.772 155.799 114.371 155.386C113.969 154.97 113.77 154.443 113.774 153.807C113.77 153.269 113.916 152.803 114.212 152.409C114.511 152.011 114.926 151.705 115.456 151.489C115.99 151.269 116.606 151.159 117.303 151.159C118.325 151.159 119.13 151.377 119.717 151.812C120.308 152.248 120.674 152.837 120.814 153.58ZM129.178 160.176C128.625 160.176 128.126 160.078 127.683 159.881C127.244 159.68 126.895 159.384 126.638 158.994C126.384 158.604 126.257 158.123 126.257 157.551C126.257 157.059 126.348 156.652 126.53 156.33C126.712 156.008 126.96 155.75 127.274 155.557C127.589 155.364 127.943 155.218 128.337 155.119C128.734 155.017 129.145 154.943 129.57 154.898C130.081 154.845 130.496 154.797 130.814 154.756C131.132 154.71 131.363 154.642 131.507 154.551C131.655 154.456 131.729 154.311 131.729 154.114V154.08C131.729 153.652 131.602 153.32 131.348 153.085C131.094 152.85 130.729 152.733 130.251 152.733C129.748 152.733 129.348 152.843 129.053 153.062C128.761 153.282 128.564 153.542 128.462 153.841L126.541 153.568C126.693 153.038 126.943 152.595 127.291 152.239C127.64 151.879 128.066 151.61 128.57 151.432C129.073 151.25 129.63 151.159 130.24 151.159C130.661 151.159 131.079 151.208 131.496 151.307C131.912 151.405 132.293 151.568 132.638 151.795C132.982 152.019 133.259 152.324 133.467 152.71C133.679 153.097 133.786 153.58 133.786 154.159V160H131.808V158.801H131.74C131.615 159.044 131.439 159.271 131.212 159.483C130.988 159.691 130.706 159.86 130.365 159.989C130.028 160.114 129.632 160.176 129.178 160.176ZM129.712 158.665C130.125 158.665 130.482 158.583 130.786 158.42C131.089 158.254 131.321 158.034 131.484 157.761C131.651 157.489 131.734 157.191 131.734 156.869V155.841C131.67 155.894 131.56 155.943 131.405 155.989C131.253 156.034 131.083 156.074 130.893 156.108C130.704 156.142 130.517 156.172 130.331 156.199C130.145 156.225 129.984 156.248 129.848 156.267C129.541 156.309 129.267 156.377 129.024 156.472C128.782 156.566 128.59 156.699 128.45 156.869C128.31 157.036 128.24 157.252 128.24 157.517C128.24 157.896 128.378 158.182 128.655 158.375C128.931 158.568 129.284 158.665 129.712 158.665ZM140.212 151.273V152.864H135.195V151.273H140.212ZM136.433 149.182H138.49V157.375C138.49 157.652 138.532 157.864 138.615 158.011C138.702 158.155 138.816 158.254 138.956 158.307C139.096 158.36 139.251 158.386 139.422 158.386C139.551 158.386 139.668 158.377 139.774 158.358C139.884 158.339 139.967 158.322 140.024 158.307L140.371 159.915C140.261 159.953 140.104 159.994 139.899 160.04C139.698 160.085 139.452 160.112 139.161 160.119C138.645 160.134 138.181 160.057 137.768 159.886C137.356 159.712 137.028 159.443 136.786 159.08C136.547 158.716 136.429 158.261 136.433 157.716V149.182ZM152.798 153.58L150.923 153.784C150.87 153.595 150.777 153.417 150.645 153.25C150.516 153.083 150.342 152.949 150.122 152.847C149.902 152.744 149.634 152.693 149.315 152.693C148.887 152.693 148.527 152.786 148.236 152.972C147.948 153.157 147.806 153.398 147.81 153.693C147.806 153.947 147.899 154.153 148.088 154.312C148.281 154.472 148.599 154.602 149.043 154.705L150.531 155.023C151.357 155.201 151.971 155.483 152.372 155.869C152.777 156.256 152.982 156.761 152.986 157.386C152.982 157.936 152.821 158.42 152.503 158.841C152.188 159.258 151.751 159.583 151.19 159.818C150.63 160.053 149.986 160.17 149.259 160.17C148.19 160.17 147.33 159.947 146.679 159.5C146.027 159.049 145.639 158.422 145.514 157.619L147.52 157.426C147.611 157.82 147.804 158.117 148.099 158.318C148.395 158.519 148.779 158.619 149.253 158.619C149.741 158.619 150.134 158.519 150.429 158.318C150.728 158.117 150.878 157.869 150.878 157.574C150.878 157.324 150.781 157.117 150.588 156.955C150.399 156.792 150.103 156.667 149.702 156.58L148.213 156.267C147.376 156.093 146.757 155.799 146.355 155.386C145.954 154.97 145.755 154.443 145.759 153.807C145.755 153.269 145.901 152.803 146.196 152.409C146.495 152.011 146.91 151.705 147.44 151.489C147.974 151.269 148.59 151.159 149.287 151.159C150.31 151.159 151.115 151.377 151.702 151.812C152.293 152.248 152.658 152.837 152.798 153.58ZM154.682 163.273V151.273H156.705V152.716H156.824C156.93 152.504 157.08 152.278 157.273 152.04C157.466 151.797 157.727 151.591 158.057 151.42C158.386 151.246 158.807 151.159 159.318 151.159C159.992 151.159 160.6 151.331 161.142 151.676C161.688 152.017 162.119 152.523 162.438 153.193C162.759 153.86 162.92 154.678 162.92 155.648C162.92 156.606 162.763 157.42 162.449 158.091C162.134 158.761 161.706 159.273 161.165 159.625C160.623 159.977 160.009 160.153 159.324 160.153C158.824 160.153 158.409 160.07 158.08 159.903C157.75 159.737 157.485 159.536 157.284 159.301C157.087 159.062 156.934 158.837 156.824 158.625H156.739V163.273H154.682ZM156.699 155.636C156.699 156.201 156.778 156.695 156.938 157.119C157.1 157.544 157.333 157.875 157.636 158.114C157.943 158.348 158.314 158.466 158.75 158.466C159.205 158.466 159.585 158.345 159.892 158.102C160.199 157.856 160.43 157.521 160.585 157.097C160.744 156.669 160.824 156.182 160.824 155.636C160.824 155.095 160.746 154.614 160.591 154.193C160.436 153.773 160.205 153.443 159.898 153.205C159.591 152.966 159.208 152.847 158.75 152.847C158.311 152.847 157.938 152.962 157.631 153.193C157.324 153.424 157.091 153.748 156.932 154.165C156.777 154.581 156.699 155.072 156.699 155.636ZM168.545 160.17C167.67 160.17 166.915 159.989 166.278 159.625C165.646 159.258 165.159 158.739 164.818 158.068C164.477 157.394 164.307 156.6 164.307 155.688C164.307 154.79 164.477 154.002 164.818 153.324C165.163 152.642 165.644 152.112 166.261 151.733C166.879 151.35 167.604 151.159 168.438 151.159C168.975 151.159 169.483 151.246 169.96 151.42C170.441 151.591 170.866 151.856 171.233 152.216C171.604 152.576 171.896 153.034 172.108 153.591C172.32 154.144 172.426 154.803 172.426 155.568V156.199H165.273V154.812H170.455C170.451 154.419 170.366 154.068 170.199 153.761C170.032 153.451 169.799 153.206 169.5 153.028C169.205 152.85 168.86 152.761 168.466 152.761C168.045 152.761 167.676 152.864 167.358 153.068C167.04 153.269 166.792 153.534 166.614 153.864C166.439 154.189 166.35 154.547 166.347 154.938V156.148C166.347 156.655 166.439 157.091 166.625 157.455C166.811 157.814 167.07 158.091 167.403 158.284C167.737 158.473 168.127 158.568 168.574 158.568C168.873 158.568 169.144 158.527 169.386 158.443C169.629 158.356 169.839 158.229 170.017 158.062C170.195 157.896 170.33 157.689 170.42 157.443L172.341 157.659C172.22 158.167 171.989 158.61 171.648 158.989C171.311 159.364 170.879 159.655 170.352 159.864C169.826 160.068 169.223 160.17 168.545 160.17ZM178.03 160.17C177.155 160.17 176.399 159.989 175.763 159.625C175.13 159.258 174.643 158.739 174.303 158.068C173.962 157.394 173.791 156.6 173.791 155.688C173.791 154.79 173.962 154.002 174.303 153.324C174.647 152.642 175.128 152.112 175.746 151.733C176.363 151.35 177.089 151.159 177.922 151.159C178.46 151.159 178.967 151.246 179.445 151.42C179.926 151.591 180.35 151.856 180.717 152.216C181.089 152.576 181.38 153.034 181.592 153.591C181.804 154.144 181.911 154.803 181.911 155.568V156.199H174.757V154.812H179.939C179.935 154.419 179.85 154.068 179.683 153.761C179.517 153.451 179.284 153.206 178.984 153.028C178.689 152.85 178.344 152.761 177.95 152.761C177.53 152.761 177.161 152.864 176.842 153.068C176.524 153.269 176.276 153.534 176.098 153.864C175.924 154.189 175.835 154.547 175.831 154.938V156.148C175.831 156.655 175.924 157.091 176.109 157.455C176.295 157.814 176.554 158.091 176.888 158.284C177.221 158.473 177.611 158.568 178.058 158.568C178.357 158.568 178.628 158.527 178.871 158.443C179.113 158.356 179.323 158.229 179.501 158.062C179.679 157.896 179.814 157.689 179.905 157.443L181.825 157.659C181.704 158.167 181.473 158.61 181.132 158.989C180.795 159.364 180.363 159.655 179.837 159.864C179.31 160.068 178.708 160.17 178.03 160.17ZM186.889 160.153C186.204 160.153 185.59 159.977 185.048 159.625C184.507 159.273 184.079 158.761 183.764 158.091C183.45 157.42 183.293 156.606 183.293 155.648C183.293 154.678 183.452 153.86 183.77 153.193C184.092 152.523 184.526 152.017 185.071 151.676C185.616 151.331 186.224 151.159 186.895 151.159C187.406 151.159 187.827 151.246 188.156 151.42C188.486 151.591 188.747 151.797 188.94 152.04C189.134 152.278 189.283 152.504 189.389 152.716H189.474V148.364H191.537V160H189.514V158.625H189.389C189.283 158.837 189.13 159.062 188.929 159.301C188.728 159.536 188.463 159.737 188.134 159.903C187.804 160.07 187.389 160.153 186.889 160.153ZM187.463 158.466C187.899 158.466 188.27 158.348 188.577 158.114C188.884 157.875 189.116 157.544 189.276 157.119C189.435 156.695 189.514 156.201 189.514 155.636C189.514 155.072 189.435 154.581 189.276 154.165C189.12 153.748 188.889 153.424 188.582 153.193C188.279 152.962 187.906 152.847 187.463 152.847C187.005 152.847 186.622 152.966 186.315 153.205C186.009 153.443 185.777 153.773 185.622 154.193C185.467 154.614 185.389 155.095 185.389 155.636C185.389 156.182 185.467 156.669 185.622 157.097C185.781 157.521 186.014 157.856 186.321 158.102C186.632 158.345 187.012 158.466 187.463 158.466Z" fill="#3D3D3D"/>
<g clip-path="url(#clip2_2836_23096)">
<path d="M31.6614 244.425C31.6614 246.62 29.8839 248.397 27.6893 248.397H14.0814C11.8868 248.397 10.1093 246.62 10.1093 244.425V223.575C10.1093 221.38 11.8868 219.603 14.0814 219.603H26.3354C29.6125 222.88 28.3811 221.648 31.6581 224.925V234.561" stroke="#052161" stroke-width="1.98607" stroke-linecap="round"/>
<path d="M30.4928 241.373V237.441C30.4928 237.117 30.8437 236.915 31.1217 237.077L34.5278 239.043C34.8092 239.205 34.8092 239.609 34.5278 239.771L31.1217 241.738C30.8404 241.9 30.4928 241.698 30.4928 241.373Z" fill="#1659F3"/>
<path d="M15.6437 239.407H32.7934" stroke="#1659F3" stroke-width="0.993035" stroke-miterlimit="10" stroke-linecap="round"/>
<path d="M35.9711 237.451C37.0533 237.451 37.9307 236.574 37.9307 235.491C37.9307 234.409 37.0533 233.532 35.9711 233.532C34.8888 233.532 34.0115 234.409 34.0115 235.491C34.0115 236.574 34.8888 237.451 35.9711 237.451Z" fill="#1659F3"/>
<path d="M35.9711 245.246C37.0533 245.246 37.9307 244.369 37.9307 243.287C37.9307 242.204 37.0533 241.327 35.9711 241.327C34.8888 241.327 34.0115 242.204 34.0115 243.287C34.0115 244.369 34.8888 245.246 35.9711 245.246Z" fill="#1659F3"/>
<path d="M39.8968 241.367C40.9791 241.367 41.8564 240.489 41.8564 239.407C41.8564 238.325 40.9791 237.448 39.8968 237.448C38.8146 237.448 37.9373 238.325 37.9373 239.407C37.9373 240.489 38.8146 241.367 39.8968 241.367Z" fill="#1659F3"/>
<path d="M26.4777 219.603V224.244C26.4777 224.803 26.9311 225.256 27.4906 225.256H31.8003" stroke="#052161" stroke-width="0.993035"/>
<path d="M15.6437 234.647H26.1334" stroke="#052161" stroke-width="0.993035" stroke-linecap="round"/>
<path d="M15.6437 229.887H26.1334" stroke="#052161" stroke-width="0.993035" stroke-linecap="round"/>
</g>
<path d="M62.642 240H60.392L64.4886 228.364H67.0909L71.1932 240H68.9432L65.8352 230.75H65.7443L62.642 240ZM62.7159 235.438H68.8523V237.131H62.7159V235.438ZM76.1761 240.17C75.3049 240.17 74.5568 239.979 73.9318 239.597C73.3106 239.214 72.8314 238.686 72.4943 238.011C72.161 237.333 71.9943 236.553 71.9943 235.67C71.9943 234.784 72.1648 234.002 72.5057 233.324C72.8466 232.642 73.3277 232.112 73.9489 231.733C74.5739 231.35 75.3125 231.159 76.1648 231.159C76.8731 231.159 77.5 231.29 78.0455 231.551C78.5947 231.809 79.0322 232.174 79.358 232.648C79.6837 233.117 79.8693 233.667 79.9148 234.295H77.9489C77.8693 233.875 77.6799 233.525 77.3807 233.244C77.0852 232.96 76.6894 232.818 76.1932 232.818C75.7727 232.818 75.4034 232.932 75.0852 233.159C74.767 233.383 74.5189 233.705 74.3409 234.125C74.1667 234.545 74.0795 235.049 74.0795 235.636C74.0795 236.231 74.1667 236.742 74.3409 237.17C74.5152 237.595 74.7595 237.922 75.0739 238.153C75.392 238.381 75.7652 238.494 76.1932 238.494C76.4962 238.494 76.767 238.437 77.0057 238.324C77.2481 238.206 77.4508 238.038 77.6136 237.818C77.7765 237.598 77.8883 237.331 77.9489 237.017H79.9148C79.8655 237.634 79.6837 238.182 79.3693 238.659C79.0549 239.133 78.6269 239.504 78.0852 239.773C77.5436 240.038 76.9072 240.17 76.1761 240.17ZM85.9616 231.273V232.864H80.9446V231.273H85.9616ZM82.1832 229.182H84.2401V237.375C84.2401 237.652 84.2817 237.864 84.3651 238.011C84.4522 238.155 84.5658 238.254 84.706 238.307C84.8461 238.36 85.0014 238.386 85.1719 238.386C85.3007 238.386 85.4181 238.377 85.5241 238.358C85.634 238.339 85.7173 238.322 85.7741 238.307L86.1207 239.915C86.0109 239.953 85.8537 239.994 85.6491 240.04C85.4484 240.085 85.2022 240.112 84.9105 240.119C84.3954 240.134 83.9313 240.057 83.5185 239.886C83.1056 239.712 82.7779 239.443 82.5355 239.08C82.2969 238.716 82.1795 238.261 82.1832 237.716V229.182ZM87.6818 240V231.273H89.7386V240H87.6818ZM88.7159 230.034C88.3902 230.034 88.1098 229.926 87.875 229.71C87.6402 229.491 87.5227 229.227 87.5227 228.92C87.5227 228.61 87.6402 228.347 87.875 228.131C88.1098 227.911 88.3902 227.801 88.7159 227.801C89.0455 227.801 89.3258 227.911 89.5568 228.131C89.7917 228.347 89.9091 228.61 89.9091 228.92C89.9091 229.227 89.7917 229.491 89.5568 229.71C89.3258 229.926 89.0455 230.034 88.7159 230.034ZM95.6605 240.17C94.8082 240.17 94.0696 239.983 93.4446 239.608C92.8196 239.233 92.3348 238.708 91.9901 238.034C91.6491 237.36 91.4787 236.572 91.4787 235.67C91.4787 234.769 91.6491 233.979 91.9901 233.301C92.3348 232.623 92.8196 232.097 93.4446 231.722C94.0696 231.347 94.8082 231.159 95.6605 231.159C96.5128 231.159 97.2514 231.347 97.8764 231.722C98.5014 232.097 98.9844 232.623 99.3253 233.301C99.67 233.979 99.8423 234.769 99.8423 235.67C99.8423 236.572 99.67 237.36 99.3253 238.034C98.9844 238.708 98.5014 239.233 97.8764 239.608C97.2514 239.983 96.5128 240.17 95.6605 240.17ZM95.6719 238.523C96.134 238.523 96.5204 238.396 96.831 238.142C97.1416 237.884 97.3726 237.54 97.5241 237.108C97.6795 236.676 97.7571 236.195 97.7571 235.665C97.7571 235.131 97.6795 234.648 97.5241 234.216C97.3726 233.78 97.1416 233.434 96.831 233.176C96.5204 232.919 96.134 232.79 95.6719 232.79C95.1984 232.79 94.8045 232.919 94.4901 233.176C94.1795 233.434 93.9465 233.78 93.7912 234.216C93.6397 234.648 93.5639 235.131 93.5639 235.665C93.5639 236.195 93.6397 236.676 93.7912 237.108C93.9465 237.54 94.1795 237.884 94.4901 238.142C94.8045 238.396 95.1984 238.523 95.6719 238.523ZM103.645 234.886V240H101.588V231.273H103.554V232.756H103.656C103.857 232.267 104.177 231.879 104.616 231.591C105.06 231.303 105.607 231.159 106.259 231.159C106.861 231.159 107.385 231.288 107.832 231.545C108.283 231.803 108.632 232.176 108.878 232.665C109.128 233.153 109.251 233.746 109.247 234.443V240H107.19V234.761C107.19 234.178 107.039 233.722 106.736 233.392C106.437 233.062 106.022 232.898 105.491 232.898C105.132 232.898 104.812 232.977 104.531 233.136C104.255 233.292 104.037 233.517 103.878 233.812C103.723 234.108 103.645 234.466 103.645 234.886ZM113.849 240.176C113.296 240.176 112.798 240.078 112.355 239.881C111.916 239.68 111.567 239.384 111.31 238.994C111.056 238.604 110.929 238.123 110.929 237.551C110.929 237.059 111.02 236.652 111.202 236.33C111.384 236.008 111.632 235.75 111.946 235.557C112.26 235.364 112.615 235.218 113.009 235.119C113.406 235.017 113.817 234.943 114.241 234.898C114.753 234.845 115.168 234.797 115.486 234.756C115.804 234.71 116.035 234.642 116.179 234.551C116.327 234.456 116.401 234.311 116.401 234.114V234.08C116.401 233.652 116.274 233.32 116.02 233.085C115.766 232.85 115.401 232.733 114.923 232.733C114.42 232.733 114.02 232.843 113.724 233.062C113.433 233.282 113.236 233.542 113.134 233.841L111.213 233.568C111.365 233.038 111.615 232.595 111.963 232.239C112.312 231.879 112.738 231.61 113.241 231.432C113.745 231.25 114.302 231.159 114.912 231.159C115.332 231.159 115.751 231.208 116.168 231.307C116.584 231.405 116.965 231.568 117.31 231.795C117.654 232.019 117.931 232.324 118.139 232.71C118.351 233.097 118.457 233.58 118.457 234.159V240H116.48V238.801H116.412C116.287 239.044 116.111 239.271 115.884 239.483C115.66 239.691 115.378 239.86 115.037 239.989C114.7 240.114 114.304 240.176 113.849 240.176ZM114.384 238.665C114.796 238.665 115.154 238.583 115.457 238.42C115.76 238.254 115.993 238.034 116.156 237.761C116.323 237.489 116.406 237.191 116.406 236.869V235.841C116.342 235.894 116.232 235.943 116.077 235.989C115.925 236.034 115.755 236.074 115.565 236.108C115.376 236.142 115.188 236.172 115.003 236.199C114.817 236.225 114.656 236.248 114.52 236.267C114.213 236.309 113.938 236.377 113.696 236.472C113.454 236.566 113.262 236.699 113.122 236.869C112.982 237.036 112.912 237.252 112.912 237.517C112.912 237.896 113.05 238.182 113.327 238.375C113.603 238.568 113.955 238.665 114.384 238.665ZM120.616 240V228.364H122.673V232.716H122.759C122.865 232.504 123.014 232.278 123.207 232.04C123.401 231.797 123.662 231.591 123.991 231.42C124.321 231.246 124.741 231.159 125.253 231.159C125.927 231.159 126.535 231.331 127.077 231.676C127.622 232.017 128.054 232.523 128.372 233.193C128.694 233.86 128.855 234.678 128.855 235.648C128.855 236.606 128.698 237.42 128.384 238.091C128.069 238.761 127.641 239.273 127.099 239.625C126.558 239.977 125.944 240.153 125.259 240.153C124.759 240.153 124.344 240.07 124.014 239.903C123.685 239.737 123.42 239.536 123.219 239.301C123.022 239.062 122.868 238.837 122.759 238.625H122.639V240H120.616ZM122.634 235.636C122.634 236.201 122.713 236.695 122.872 237.119C123.035 237.544 123.268 237.875 123.571 238.114C123.878 238.348 124.249 238.466 124.685 238.466C125.139 238.466 125.52 238.345 125.827 238.102C126.134 237.856 126.365 237.521 126.52 237.097C126.679 236.669 126.759 236.182 126.759 235.636C126.759 235.095 126.681 234.614 126.526 234.193C126.37 233.773 126.139 233.443 125.832 233.205C125.526 232.966 125.143 232.847 124.685 232.847C124.245 232.847 123.872 232.962 123.565 233.193C123.259 233.424 123.026 233.748 122.866 234.165C122.711 234.581 122.634 235.072 122.634 235.636ZM132.661 228.364V240H130.604V228.364H132.661ZM138.639 240.17C137.764 240.17 137.009 239.989 136.372 239.625C135.74 239.258 135.253 238.739 134.912 238.068C134.571 237.394 134.401 236.6 134.401 235.688C134.401 234.79 134.571 234.002 134.912 233.324C135.257 232.642 135.738 232.112 136.355 231.733C136.973 231.35 137.698 231.159 138.531 231.159C139.069 231.159 139.577 231.246 140.054 231.42C140.535 231.591 140.959 231.856 141.327 232.216C141.698 232.576 141.99 233.034 142.202 233.591C142.414 234.144 142.52 234.803 142.52 235.568V236.199H135.366V234.812H140.548C140.545 234.419 140.459 234.068 140.293 233.761C140.126 233.451 139.893 233.206 139.594 233.028C139.298 232.85 138.954 232.761 138.56 232.761C138.139 232.761 137.77 232.864 137.452 233.068C137.134 233.269 136.885 233.534 136.707 233.864C136.533 234.189 136.444 234.547 136.44 234.938V236.148C136.44 236.655 136.533 237.091 136.719 237.455C136.904 237.814 137.164 238.091 137.497 238.284C137.83 238.473 138.221 238.568 138.668 238.568C138.967 238.568 139.238 238.527 139.48 238.443C139.723 238.356 139.933 238.229 140.111 238.062C140.289 237.896 140.423 237.689 140.514 237.443L142.435 237.659C142.313 238.167 142.082 238.61 141.741 238.989C141.404 239.364 140.973 239.655 140.446 239.864C139.92 240.068 139.317 240.17 138.639 240.17ZM148.32 240V228.364H152.683C153.577 228.364 154.327 228.519 154.933 228.83C155.543 229.14 156.003 229.576 156.314 230.136C156.628 230.693 156.786 231.343 156.786 232.085C156.786 232.831 156.626 233.479 156.308 234.028C155.994 234.574 155.53 234.996 154.916 235.295C154.303 235.591 153.549 235.739 152.655 235.739H149.547V233.989H152.371C152.893 233.989 153.321 233.917 153.655 233.773C153.988 233.625 154.234 233.411 154.393 233.131C154.556 232.847 154.638 232.498 154.638 232.085C154.638 231.672 154.556 231.32 154.393 231.028C154.231 230.733 153.982 230.509 153.649 230.358C153.316 230.203 152.886 230.125 152.359 230.125H150.428V240H148.32ZM154.331 234.727L157.212 240H154.859L152.03 234.727H154.331ZM162.374 240.17C161.499 240.17 160.743 239.989 160.107 239.625C159.474 239.258 158.987 238.739 158.646 238.068C158.305 237.394 158.135 236.6 158.135 235.688C158.135 234.79 158.305 234.002 158.646 233.324C158.991 232.642 159.472 232.112 160.089 231.733C160.707 231.35 161.432 231.159 162.266 231.159C162.804 231.159 163.311 231.246 163.788 231.42C164.269 231.591 164.694 231.856 165.061 232.216C165.432 232.576 165.724 233.034 165.936 233.591C166.148 234.144 166.254 234.803 166.254 235.568V236.199H159.101V234.812H164.283C164.279 234.419 164.194 234.068 164.027 233.761C163.86 233.451 163.627 233.206 163.328 233.028C163.033 232.85 162.688 232.761 162.294 232.761C161.874 232.761 161.504 232.864 161.186 233.068C160.868 233.269 160.62 233.534 160.442 233.864C160.268 234.189 160.179 234.547 160.175 234.938V236.148C160.175 236.655 160.268 237.091 160.453 237.455C160.639 237.814 160.898 238.091 161.232 238.284C161.565 238.473 161.955 238.568 162.402 238.568C162.701 238.568 162.972 238.527 163.214 238.443C163.457 238.356 163.667 238.229 163.845 238.062C164.023 237.896 164.158 237.689 164.249 237.443L166.169 237.659C166.048 238.167 165.817 238.61 165.476 238.989C165.139 239.364 164.707 239.655 164.18 239.864C163.654 240.068 163.052 240.17 162.374 240.17ZM167.994 243.273V231.273H170.017V232.716H170.136C170.242 232.504 170.392 232.278 170.585 232.04C170.778 231.797 171.04 231.591 171.369 231.42C171.699 231.246 172.119 231.159 172.631 231.159C173.305 231.159 173.913 231.331 174.455 231.676C175 232.017 175.432 232.523 175.75 233.193C176.072 233.86 176.233 234.678 176.233 235.648C176.233 236.606 176.076 237.42 175.761 238.091C175.447 238.761 175.019 239.273 174.477 239.625C173.936 239.977 173.322 240.153 172.636 240.153C172.136 240.153 171.722 240.07 171.392 239.903C171.063 239.737 170.797 239.536 170.597 239.301C170.4 239.062 170.246 238.837 170.136 238.625H170.051V243.273H167.994ZM170.011 235.636C170.011 236.201 170.091 236.695 170.25 237.119C170.413 237.544 170.646 237.875 170.949 238.114C171.256 238.348 171.627 238.466 172.062 238.466C172.517 238.466 172.898 238.345 173.205 238.102C173.511 237.856 173.742 237.521 173.898 237.097C174.057 236.669 174.136 236.182 174.136 235.636C174.136 235.095 174.059 234.614 173.903 234.193C173.748 233.773 173.517 233.443 173.21 233.205C172.903 232.966 172.521 232.847 172.062 232.847C171.623 232.847 171.25 232.962 170.943 233.193C170.636 233.424 170.403 233.748 170.244 234.165C170.089 234.581 170.011 235.072 170.011 235.636ZM181.801 240.17C180.949 240.17 180.21 239.983 179.585 239.608C178.96 239.233 178.475 238.708 178.131 238.034C177.79 237.36 177.619 236.572 177.619 235.67C177.619 234.769 177.79 233.979 178.131 233.301C178.475 232.623 178.96 232.097 179.585 231.722C180.21 231.347 180.949 231.159 181.801 231.159C182.653 231.159 183.392 231.347 184.017 231.722C184.642 232.097 185.125 232.623 185.466 233.301C185.811 233.979 185.983 234.769 185.983 235.67C185.983 236.572 185.811 237.36 185.466 238.034C185.125 238.708 184.642 239.233 184.017 239.608C183.392 239.983 182.653 240.17 181.801 240.17ZM181.812 238.523C182.275 238.523 182.661 238.396 182.972 238.142C183.282 237.884 183.513 237.54 183.665 237.108C183.82 236.676 183.898 236.195 183.898 235.665C183.898 235.131 183.82 234.648 183.665 234.216C183.513 233.78 183.282 233.434 182.972 233.176C182.661 232.919 182.275 232.79 181.812 232.79C181.339 232.79 180.945 232.919 180.631 233.176C180.32 233.434 180.087 233.78 179.932 234.216C179.78 234.648 179.705 235.131 179.705 235.665C179.705 236.195 179.78 236.676 179.932 237.108C180.087 237.54 180.32 237.884 180.631 238.142C180.945 238.396 181.339 238.523 181.812 238.523ZM187.729 240V231.273H189.723V232.727H189.814C189.973 232.223 190.246 231.835 190.632 231.562C191.022 231.286 191.467 231.148 191.967 231.148C192.081 231.148 192.208 231.153 192.348 231.165C192.492 231.172 192.611 231.186 192.706 231.205V233.097C192.619 233.066 192.481 233.04 192.291 233.017C192.106 232.991 191.926 232.977 191.751 232.977C191.376 232.977 191.039 233.059 190.74 233.222C190.445 233.381 190.212 233.602 190.041 233.886C189.871 234.17 189.786 234.498 189.786 234.869V240H187.729ZM198.899 231.273V232.864H193.882V231.273H198.899ZM195.121 229.182H197.178V237.375C197.178 237.652 197.219 237.864 197.303 238.011C197.39 238.155 197.503 238.254 197.643 238.307C197.784 238.36 197.939 238.386 198.109 238.386C198.238 238.386 198.356 238.377 198.462 238.358C198.571 238.339 198.655 238.322 198.712 238.307L199.058 239.915C198.948 239.953 198.791 239.994 198.587 240.04C198.386 240.085 198.14 240.112 197.848 240.119C197.333 240.134 196.869 240.057 196.456 239.886C196.043 239.712 195.715 239.443 195.473 239.08C195.234 238.716 195.117 238.261 195.121 237.716V229.182ZM207.392 233.58L205.517 233.784C205.464 233.595 205.371 233.417 205.239 233.25C205.11 233.083 204.936 232.949 204.716 232.847C204.496 232.744 204.227 232.693 203.909 232.693C203.481 232.693 203.121 232.786 202.83 232.972C202.542 233.157 202.4 233.398 202.403 233.693C202.4 233.947 202.492 234.153 202.682 234.312C202.875 234.472 203.193 234.602 203.636 234.705L205.125 235.023C205.951 235.201 206.564 235.483 206.966 235.869C207.371 236.256 207.576 236.761 207.58 237.386C207.576 237.936 207.415 238.42 207.097 238.841C206.782 239.258 206.345 239.583 205.784 239.818C205.223 240.053 204.58 240.17 203.852 240.17C202.784 240.17 201.924 239.947 201.273 239.5C200.621 239.049 200.233 238.422 200.108 237.619L202.114 237.426C202.205 237.82 202.398 238.117 202.693 238.318C202.989 238.519 203.373 238.619 203.847 238.619C204.335 238.619 204.727 238.519 205.023 238.318C205.322 238.117 205.472 237.869 205.472 237.574C205.472 237.324 205.375 237.117 205.182 236.955C204.992 236.792 204.697 236.667 204.295 236.58L202.807 236.267C201.97 236.093 201.35 235.799 200.949 235.386C200.547 234.97 200.348 234.443 200.352 233.807C200.348 233.269 200.494 232.803 200.79 232.409C201.089 232.011 201.504 231.705 202.034 231.489C202.568 231.269 203.184 231.159 203.881 231.159C204.903 231.159 205.708 231.377 206.295 231.812C206.886 232.248 207.252 232.837 207.392 233.58Z" fill="#3D3D3D"/>
<defs>
<clipPath id="clip0_2836_23096">
<rect width="48" height="48" fill="white" transform="translate(0 50)"/>
</clipPath>
<clipPath id="clip1_2836_23096">
<rect width="48" height="48" fill="white" transform="translate(0 130)"/>
</clipPath>
<clipPath id="clip2_2836_23096">
<rect width="48" height="48" fill="white" transform="translate(0 210)"/>
</clipPath>
</defs>
</svg>
